<svg version="1.2" xmlns="http://www.w3.org/2000/svg" viewBox="0 0 500 485" width="500" height="485">
	<style>
		.s0 { fill: #ffffff } 
	</style>
	<path id="Path 0" class="s0" d="m270.15 20.1c-0.15 2.14 3.11 4.28 30.28 19.9 16.74 9.63 30.36 17.59 30.26 17.7-0.11 0.12-4.24-0.9-9.19-2.26-4.95-1.35-16.2-4.01-25-5.89-8.8-1.88-22.07-4.34-29.5-5.45-7.42-1.11-21.37-2.53-31-3.16-9.62-0.64-22.9-0.86-29.5-0.49-6.6 0.36-15.15 1.12-19 1.69-3.85 0.56-11.5 2.13-17 3.48-5.5 1.35-14.5 4.26-20 6.47-5.5 2.21-13.6 6.09-18 8.62-4.4 2.53-10.47 6.49-13.5 8.79-3.02 2.31-8.35 7.3-11.84 11.1-4.21 4.59-7.81 9.91-10.75 15.9-3.25 6.64-4.83 11.49-6.01 18.5-1.1 6.45-1.4 11.9-0.95 17 0.36 4.13 1.34 10.2 2.19 13.5 0.85 3.3 3 9.15 4.78 13 1.78 3.85 5.49 9.47 8.24 12.5 2.75 3.03 8.79 7.94 13.42 10.93 4.63 2.99 10.78 6.47 13.67 7.75 2.99 1.32 9.23 2.8 14.5 3.43 5.51 0.66 14.1 0.83 21.25 0.43 6.6-0.38 19.88-1.33 29.5-2.13 9.63-0.8 28.08-2.35 41-3.45 12.93-1.09 33.4-2.27 45.5-2.62 14.07-0.4 26.87-0.2 35.5 0.56 7.43 0.66 18 2.11 23.5 3.23 5.5 1.12 15.18 3.6 21.5 5.52 6.33 1.92 16 5.67 21.5 8.33 5.5 2.67 12.93 6.75 16.5 9.08 3.58 2.33 9.99 7.1 14.25 10.59 4.26 3.49 8.2 6.35 8.75 6.35 0.55 0 1 0.45 1 1 0 0.55 2.81 4.18 6.25 8.06 3.44 3.89 8.4 10.3 11.03 14.25 2.63 3.96 6.73 11.01 9.12 15.69 2.39 4.68 5.86 12.22 7.72 16.77 2.43 5.94 3.87 8.26 5.13 8.25 1.38-0.02 2.17-1.88 3.74-8.77 1.09-4.81 2.43-13.25 2.97-18.75 0.54-5.5 1-15.74 1.01-22.75 0.02-8.52-0.81-18.48-2.49-30-1.38-9.49-3.59-21.3-4.9-26.25-1.31-4.95-4.04-13.5-6.06-19-2.03-5.5-6.27-15.4-9.43-22-3.16-6.6-8.81-16.95-12.54-23-3.73-6.05-8.31-13.14-10.17-15.75-1.86-2.61-4.05-4.75-4.88-4.75-0.82 0-1.49-0.79-1.47-1.75 0.02-0.96-6.62-8.29-14.75-16.28-8.13-8-20.46-18.8-27.4-24-6.94-5.21-18.64-12.89-26-17.07-7.36-4.17-17.43-9.31-22.38-11.4-4.95-2.1-12.82-5.1-17.5-6.67-4.67-1.57-12.1-3.53-16.5-4.36-4.4-0.82-12.09-1.78-17.09-2.13-9.07-0.63-9.09-0.63-9.26 1.76zm-245.15 256.65c0 3.16 1.11 10.25 2.45 15.75 1.35 5.5 4.21 15.18 6.36 21.5 2.15 6.33 5.97 16 8.49 21.5 2.53 5.5 6.32 13.15 8.44 17 2.12 3.85 5.58 9.7 7.7 13 2.11 3.3 6.88 10.05 10.61 15 3.72 4.95 11.2 13.54 16.61 19.08 5.41 5.55 14.57 13.83 20.34 18.4 5.78 4.57 12.98 9.98 16 12.03 3.03 2.05 9.1 5.86 13.5 8.46 4.4 2.6 12.73 6.87 18.5 9.49 5.78 2.62 14.55 6.15 19.5 7.84 4.95 1.69 13.95 4.49 20 6.22 7.85 2.24 14.01 3.29 21.5 3.67 9.32 0.48 12.52 0.14 28.5-3.03 9.9-1.97 23.18-5.22 29.5-7.22 6.33-2.01 16-5.76 21.5-8.34 5.5-2.58 14.05-7.31 19-10.51 4.95-3.2 10.91-7.34 13.25-9.2 2.34-1.87 4.25-4.06 4.25-4.89 0-0.82 0.68-1.5 1.5-1.5 0.83 0 3.26-2.36 5.42-5.25 2.15-2.89 5.72-8.62 7.94-12.75 2.21-4.12 4.67-9.52 5.47-12 0.81-2.47 2.02-6.97 2.71-10 0.8-3.54 1.05-9.23 0.69-16-0.34-6.59-1.37-13.11-2.74-17.5-1.2-3.85-3.92-10.37-6.04-14.5-2.12-4.12-6.68-10.59-10.15-14.37-3.68-4.01-9.42-8.79-13.8-11.48-4.12-2.53-11.1-5.84-15.5-7.35-4.4-1.52-12.5-3.43-18-4.27-5.5-0.83-12.7-1.52-16-1.51-3.3 0-13.2 0.67-22 1.49-8.8 0.82-29.72 2.45-46.5 3.64-20.16 1.43-40.67 2.18-60.5 2.24-24.19 0.06-32.23-0.27-41.5-1.71-6.32-0.99-14.87-2.65-19-3.7-4.12-1.04-11.1-3.08-15.5-4.52-4.4-1.44-11.37-4.18-15.5-6.1-4.12-1.92-11.55-5.92-16.5-8.9-4.95-2.98-9.34-5.43-9.75-5.44-0.41-0.01-0.75 2.57-0.75 5.73z"/>
</svg>