<?xml version="1.0" encoding="UTF-8"?>
<svg version="1.1" xmlns="http://www.w3.org/2000/svg" width="800" height="698">
<path d="M0 0 C2.73872955 0.45772063 2.73872955 0.45772063 5.6875 0.625 C6.68136719 0.69976562 7.67523438 0.77453125 8.69921875 0.8515625 C9.83810547 0.92503906 9.83810547 0.92503906 11 1 C11.33 1.99 11.66 2.98 12 4 C14.97 4 17.94 4 21 4 C21 4.99 21 5.98 21 7 C21.58007812 6.94199219 22.16015625 6.88398438 22.7578125 6.82421875 C27.39448311 6.55642424 29.32987259 6.47730062 33.125 9.4375 C34.07375 10.283125 35.0225 11.12875 36 12 C39.69523952 12.71923208 39.69523952 12.71923208 43 13 C43.33 13.66 43.66 14.32 44 15 C45.64363134 15.72159424 47.31050386 16.39351421 49 17 C49 17.66 49 18.32 49 19 C50.65 19 52.3 19 54 19 C54.33 19.66 54.66 20.32 55 21 C56.64363134 21.72159424 58.31050386 22.39351421 60 23 C60 23.66 60 24.32 60 25 C61.65 25 63.3 25 65 25 C65.33 25.99 65.66 26.98 66 28 C67.98 28 69.96 28 72 28 C72 28.99 72 29.98 72 31 C72.99 31.33 73.98 31.66 75 32 C75 32.66 75 33.32 75 34 C76.32 34 77.64 34 79 34 C79 34.99 79 35.98 79 37 C80.65 37.33 82.3 37.66 84 38 C84 38.66 84 39.32 84 40 C84.99 40 85.98 40 87 40 C89.1875 41.875 89.1875 41.875 91 44 C91 44.66 91 45.32 91 46 C91.61875 46.12375 92.2375 46.2475 92.875 46.375 C95 47 95 47 97 49 C97 49.99 97 50.98 97 52 C97.99 52 98.98 52 100 52 C100 52.99 100 53.98 100 55 C100.8353125 55.0928125 100.8353125 55.0928125 101.6875 55.1875 C105.01529218 56.35672428 106.73133832 58.35322804 109 61 C109 61.99 109 62.98 109 64 C110.65 64.33 112.3 64.66 114 65 C114 65.66 114 66.32 114 67 C114.99 67.33 115.98 67.66 117 68 C117.33 69.65 117.66 71.3 118 73 C118.99 73.33 119.98 73.66 121 74 C121 74.66 121 75.32 121 76 C121.99 76 122.98 76 124 76 C124 76.99 124 77.98 124 79 C124.99 79.33 125.98 79.66 127 80 C127 81.65 127 83.3 127 85 C127.99 85 128.98 85 130 85 C130 85.99 130 86.98 130 88 C130.99 88.33 131.98 88.66 133 89 C133 89.66 133 90.32 133 91 C133.99 91.33 134.98 91.66 136 92 C136 93.65 136 95.3 136 97 C136.99 97 137.98 97 139 97 C139 98.32 139 99.64 139 101 C139.66 101 140.32 101 141 101 C141.33 102.65 141.66 104.3 142 106 C142.99 106 143.98 106 145 106 C145 107.98 145 109.96 145 112 C145.99 112.33 146.98 112.66 148 113 C148 114.65 148 116.3 148 118 C148.99 118 149.98 118 151 118 C151.061875 119.2375 151.12375 120.475 151.1875 121.75 C151.59416381 125.26209656 151.69136154 125.74405591 154.5625 128.125 C155.7690625 129.053125 155.7690625 129.053125 157 130 C157.3125 133.25 157.3125 133.25 157 136 C157.99 136.33 158.98 136.66 160 137 C160 139.97 160 142.94 160 146 C160.66 146 161.32 146 162 146 C162.7115625 147.4540625 162.7115625 147.4540625 163.4375 148.9375 C164.70193947 151.80477437 164.70193947 151.80477437 166 153 C166.28397852 155.80823199 166.44846665 158.61646635 166.62109375 161.43359375 C166.76311965 164.1606167 166.76311965 164.1606167 169 166 C169.32333563 169.23703052 169.46441866 172.4291297 169.56640625 175.67773438 C169.64574385 177.45593149 169.81605856 179.22956362 170 181 C170.66 181.33 171.32 181.66 172 182 C172 185.96 172 189.92 172 194 C172.66 194 173.32 194 174 194 C174 212.48 174 230.96 174 250 C173.34 250 172.68 250 172 250 C172.01160156 250.91523438 172.02320313 251.83046875 172.03515625 252.7734375 C172.04869141 254.55621094 172.04869141 254.55621094 172.0625 256.375 C172.07410156 257.55835938 172.08570313 258.74171875 172.09765625 259.9609375 C172 263 172 263 171 265 C170.34 265 169.68 265 169 265 C169 268.63 169 272.26 169 276 C167.68 276.33 166.36 276.66 165 277 C164.98582031 277.54785156 164.97164062 278.09570312 164.95703125 278.66015625 C164.21832501 290.93865193 160.08129479 304.40570876 150.8984375 312.95703125 C138.43670223 323.12769148 126.67281116 324.13338359 111 323 C100.03238896 320.86503678 89.87409317 313.69182357 83 305 C79.83842833 300.15208408 77.04269006 295.07989839 74.18310547 290.05078125 C57.53305537 261.1897782 32.23089072 241.8852016 0.09594727 232.9987793 C-34.58676648 223.92858405 -70.60068615 227.18060113 -105.90625 230.02734375 C-128.67494612 231.8479685 -151.33635692 233.39877272 -174.1875 233.4375 C-175.15603912 233.44340149 -176.12457825 233.44930298 -177.12246704 233.4553833 C-193.64393482 233.52443892 -210.32917459 232.36289953 -226.1875 227.375 C-227.00009277 227.12411621 -227.81268555 226.87323242 -228.64990234 226.61474609 C-241.37030801 222.47028403 -253.11504859 216.05532156 -263 207 C-264.11375 206.02353516 -264.11375 206.02353516 -265.25 205.02734375 C-285.45623577 186.25939907 -292.50072681 159.2255829 -294.22265625 132.55078125 C-295.03581114 102.67617771 -285.16474232 75.83482834 -265 54 C-264.40703125 53.33742188 -263.8140625 52.67484375 -263.203125 51.9921875 C-228.83060955 15.40757947 -171.78888457 6.48334804 -124.24707031 4.97094727 C-121.43761063 4.87875139 -118.62911548 4.77036224 -115.8203125 4.66015625 C-114.98154572 4.63816666 -114.14277893 4.61617706 -113.27859497 4.59352112 C-104.30726781 4.22335232 -96.8164283 2.16177746 -89.6875 -3.4375 C-68.03233104 -19.13971756 -22.03530208 -14.69020139 0 0 Z " fill="#25C2C9" transform="translate(453,127)"/>
<path d="M0 0 C0.90508301 0.00539795 1.81016602 0.0107959 2.74267578 0.01635742 C13.81193608 0.26292573 23.77949048 2.9319593 33.875 7.4375 C34.205 5.7875 34.535 4.1375 34.875 2.4375 C37.185 2.4375 39.495 2.4375 41.875 2.4375 C42.37 3.4275 42.37 3.4275 42.875 4.4375 C43.865 4.7675 44.855 5.0975 45.875 5.4375 C45.875 6.4275 45.875 7.4175 45.875 8.4375 C47.525 8.4375 49.175 8.4375 50.875 8.4375 C51.37 9.4275 51.37 9.4275 51.875 10.4375 C52.865 10.7675 53.855 11.0975 54.875 11.4375 C54.875 12.4275 54.875 13.4175 54.875 14.4375 C56.525 14.4375 58.175 14.4375 59.875 14.4375 C60.37 15.4275 60.37 15.4275 60.875 16.4375 C63.90434491 17.09522428 63.90434491 17.09522428 66.875 17.4375 C66.875 18.0975 66.875 18.7575 66.875 19.4375 C103.69637477 23.92048062 140.20652815 22.35245624 177.1015625 19.4140625 C259.94675786 12.82374901 259.94675786 12.82374901 294.05078125 24.52734375 C296.98493245 25.56554447 296.98493245 25.56554447 300.625 25.9375 C303.875 26.4375 303.875 26.4375 305.875 28.4375 C308.99696336 28.90236718 308.99696336 28.90236718 312.5 29.0625 C314.28277344 29.17464844 314.28277344 29.17464844 316.1015625 29.2890625 C317.47441406 29.36253906 317.47441406 29.36253906 318.875 29.4375 C318.875 30.4275 318.875 31.4175 318.875 32.4375 C320.855 32.4375 322.835 32.4375 324.875 32.4375 C324.875 33.4275 324.875 34.4175 324.875 35.4375 C327.515 35.4375 330.155 35.4375 332.875 35.4375 C333.205 36.4275 333.535 37.4175 333.875 38.4375 C335.525 38.4375 337.175 38.4375 338.875 38.4375 C339.205 39.4275 339.535 40.4175 339.875 41.4375 C340.865 41.4375 341.855 41.4375 342.875 41.4375 C342.875 42.4275 342.875 43.4175 342.875 44.4375 C344.195 44.7675 345.515 45.0975 346.875 45.4375 C346.875 46.0975 346.875 46.7575 346.875 47.4375 C347.865 47.4375 348.855 47.4375 349.875 47.4375 C351.5625 48.75 351.5625 48.75 352.875 50.4375 C352.875 51.4275 352.875 52.4175 352.875 53.4375 C353.865 53.7675 354.855 54.0975 355.875 54.4375 C355.875 55.0975 355.875 55.7575 355.875 56.4375 C356.865 56.7675 357.855 57.0975 358.875 57.4375 C361.7394432 61.15066711 362.19832002 63.80324638 361.875 68.4375 C362.865 68.4375 363.855 68.4375 364.875 68.4375 C364.875 70.4175 364.875 72.3975 364.875 74.4375 C365.865 74.7675 366.855 75.0975 367.875 75.4375 C369 77.9375 369 77.9375 369.875 80.4375 C370.205 80.7675 370.535 81.0975 370.875 81.4375 C371.11301794 85.20422828 371.27109519 88.96443107 371.39257812 92.73632812 C371.42673828 93.53103516 371.46089844 94.32574219 371.49609375 95.14453125 C371.5211499 95.8713208 371.54620605 96.59811035 371.57202148 97.34692383 C371.77188893 99.50533566 371.77188893 99.50533566 372.91821289 101.5065918 C374.32980042 104.3553404 373.61027276 106.42956599 372.875 109.4375 C372.545 109.7675 372.215 110.0975 371.875 110.4375 C371.66371644 113.08734799 371.49887334 115.72089897 371.375 118.375 C371.00934803 126.16880393 371.00934803 126.16880393 369.875 128.4375 C369.215 128.4375 368.555 128.4375 367.875 128.4375 C367.7925 129.076875 367.71 129.71625 367.625 130.375 C366.96408299 133.07374447 366.14450629 135.05571149 364.9453125 137.53125 C362.79899317 142.28882835 361.84301728 146.87560864 361 152 C355.24836031 183.36541381 336.38080932 208.32121241 310.45410156 226.28491211 C269.00308964 254.28092984 211.01649125 269.82871091 161.36572266 260.41430664 C136.80003564 255.22677678 113.00188227 246.23663899 90.875 234.4375 C89.90167725 233.92582275 89.90167725 233.92582275 88.90869141 233.40380859 C74.20316677 225.62918131 60.61013212 216.13263429 47.875 205.4375 C47.35373535 205.00501953 46.8324707 204.57253906 46.29541016 204.12695312 C33.92187992 193.84447545 22.88509747 183.05972144 12.875 170.4375 C12.14796875 169.57769531 11.4209375 168.71789062 10.671875 167.83203125 C-17.15088125 134.90195086 -44.13782968 83.62566858 -41.125 39.4375 C-39.94877239 27.20473285 -36.78363983 15.93484896 -27.08984375 7.7109375 C-18.82607964 1.79367431 -10.05076477 -0.11651688 0 0 Z " fill="#0C2226" transform="translate(137.125,372.5625)"/>
<path d="M0 0 C0 0.33 0 0.66 0 1 C-6.93 1 -13.86 1 -21 1 C-21 3.64 -21 6.28 -21 9 C-20.2575 9.12375 -19.515 9.2475 -18.75 9.375 C-16.17069951 9.96120466 -14.2517838 10.63284555 -12 12 C-11.67 12.66 -11.34 13.32 -11 14 C-7.37438822 16.06000669 -4.12797305 17.39294514 0 18 C0 18.99 0 19.98 0 21 C1.98 21 3.96 21 6 21 C6 21.99 6 22.98 6 24 C6.99 24 7.98 24 9 24 C9 24.66 9 25.32 9 26 C10.98 26.33 12.96 26.66 15 27 C15 27.66 15 28.32 15 29 C16.98 29.33 18.96 29.66 21 30 C21 30.66 21 31.32 21 32 C22.98 32.33 24.96 32.66 27 33 C26.67 33.66 26.34 34.32 26 35 C25.01 34.67 24.02 34.34 23 34 C20.13569136 33.69760965 17.27080066 33.49234231 14.3984375 33.28125 C12 33 12 33 11 32 C8.98688551 31.60430892 6.96402792 31.25747809 4.9375 30.9375 C3.83277344 30.76089844 2.72804688 30.58429688 1.58984375 30.40234375 C0.73519531 30.26957031 -0.11945313 30.13679688 -1 30 C-1 29.34 -1 28.68 -1 28 C-6.94 27.67 -12.88 27.34 -19 27 C-19 26.01 -19 25.02 -19 24 C-20.20398438 24.02320313 -21.40796875 24.04640625 -22.6484375 24.0703125 C-24.22395215 24.08906863 -25.79947348 24.10726899 -27.375 24.125 C-28.1690625 24.14175781 -28.963125 24.15851563 -29.78125 24.17578125 C-31.85492015 24.19335473 -33.92883241 24.10335168 -36 24 C-36.99 23.01 -36.99 23.01 -38 22 C-40.54759247 21.66814656 -40.54759247 21.66814656 -43.55126953 21.68115234 C-44.71232208 21.66128265 -45.87337463 21.64141296 -47.0696106 21.62094116 C-48.95714554 21.60361435 -48.95714554 21.60361435 -50.8828125 21.5859375 C-52.16735321 21.56657135 -53.45189392 21.5472052 -54.77536011 21.5272522 C-58.19147535 21.47586059 -61.60763007 21.43627286 -65.02392578 21.39910889 C-68.50953999 21.35911302 -71.99498903 21.30800062 -75.48046875 21.2578125 C-82.3201919 21.16097025 -89.16002096 21.0765922 -96 21 C-96 21.99 -96 22.98 -96 24 C-96.92683594 24.04898438 -97.85367188 24.09796875 -98.80859375 24.1484375 C-100.00613281 24.22320312 -101.20367187 24.29796875 -102.4375 24.375 C-103.63246094 24.44460937 -104.82742188 24.51421875 -106.05859375 24.5859375 C-107.51458984 24.79089844 -107.51458984 24.79089844 -109 25 C-109.33 25.66 -109.66 26.32 -110 27 C-113.36423611 27.3979204 -116.70990324 27.50912623 -120.09375 27.65625 C-121.0528125 27.7696875 -122.011875 27.883125 -123 28 C-123.33 28.66 -123.66 29.32 -124 30 C-126.03125 30.59765625 -126.03125 30.59765625 -128.5 31.0625 C-131.53773221 31.45864843 -131.53773221 31.45864843 -134 33 C-135.68183948 33.23287008 -137.3712416 33.41264166 -139.0625 33.5625 C-139.98160156 33.64628906 -140.90070313 33.73007813 -141.84765625 33.81640625 C-142.55792969 33.87699219 -143.26820313 33.93757813 -144 34 C-144 34.66 -144 35.32 -144 36 C-145.20703125 37.61328125 -145.20703125 37.61328125 -147 39 C-149.26171875 39.29296875 -149.26171875 39.29296875 -151.6875 39.1875 C-152.89986328 39.14689453 -152.89986328 39.14689453 -154.13671875 39.10546875 C-154.75160156 39.07066406 -155.36648438 39.03585938 -156 39 C-156 39.99 -156 40.98 -156 42 C-156.9075 42.061875 -157.815 42.12375 -158.75 42.1875 C-162.79780059 43.19945015 -163.50738741 44.78372569 -166 48 C-168.75 48.8125 -168.75 48.8125 -171 49 C-171.33 49.99 -171.66 50.98 -172 52 C-172.66 52 -173.32 52 -174 52 C-174.33 52.99 -174.66 53.98 -175 55 C-175.66 55 -176.32 55 -177 55 C-177 55.66 -177 56.32 -177 57 C-178.485 57.495 -178.485 57.495 -180 58 C-181.35827971 59.64639965 -182.69254251 61.31295807 -184 63 C-184.99 63.495 -184.99 63.495 -186 64 C-186.495 65.485 -186.495 65.485 -187 67 C-187.66 67 -188.32 67 -189 67 C-189.495 68.485 -189.495 68.485 -190 70 C-190.66 70 -191.32 70 -192 70 C-192.29003906 70.92232422 -192.29003906 70.92232422 -192.5859375 71.86328125 C-192.84632813 72.67152344 -193.10671875 73.47976562 -193.375 74.3125 C-193.75785156 75.51326172 -193.75785156 75.51326172 -194.1484375 76.73828125 C-195 79 -195 79 -197 82 C-197.62585032 84.01304448 -197.62585032 84.01304448 -198.0625 86.125 C-199 90 -199 90 -200 91 C-202.3011055 105.06231136 -203.4421466 124.13899416 -196.890625 136.98828125 C-196 139 -196 139 -195.75 142.5 C-194.73215655 147.24993611 -192.15492227 149.57032939 -188.8125 152.984375 C-187 155 -187 155 -186 158 C-185.34 158.33 -184.68 158.66 -184 159 C-184 159.99 -184 160.98 -184 162 C-182.68 162 -181.36 162 -180 162 C-180 162.66 -180 163.32 -180 164 C-178.02 164.33 -176.04 164.66 -174 165 C-174 165.99 -174 166.98 -174 168 C-173.34 168 -172.68 168 -172 168 C-171.67 168.66 -171.34 169.32 -171 170 C-169.09196723 170.20443208 -167.18351937 170.4055376 -165.2734375 170.58984375 C-162.8727759 171.0229528 -161.26650852 171.7905656 -159.125 172.9375 C-153.03903462 175.90521457 -146.36464316 176.02674151 -139.71875 176.60546875 C-136 177 -136 177 -135 178 C-133.00217874 178.15825258 -130.99911166 178.25119171 -128.99609375 178.31640625 C-127.78115234 178.35830078 -126.56621094 178.40019531 -125.31445312 178.44335938 C-124.03505859 178.48267578 -122.75566406 178.52199219 -121.4375 178.5625 C-119.51260742 178.62727539 -119.51260742 178.62727539 -117.54882812 178.69335938 C-114.36600147 178.799848 -111.18309326 178.90185962 -108 179 C-108 178.34 -108 177.68 -108 177 C-106.82904785 176.98018066 -105.6580957 176.96036133 -104.45166016 176.93994141 C-100.11663926 176.86399919 -95.78195905 176.7752648 -91.44726562 176.68261719 C-89.56940424 176.64428023 -87.69146824 176.60943573 -85.81347656 176.578125 C-83.11756679 176.53257637 -80.42217288 176.47456625 -77.7265625 176.4140625 C-76.46243027 176.39673569 -76.46243027 176.39673569 -75.17276001 176.37905884 C-70.60979043 176.45806819 -70.60979043 176.45806819 -67 174 C-61.78865299 173.06617744 -56.46432702 172.77889527 -51.1875 172.375 C-50.35661865 172.30896576 -49.5257373 172.24293152 -48.66967773 172.17489624 C-18.55290073 169.87147146 11.81931259 170.74077432 42 171 C42 171.66 42 172.32 42 173 C43.33804688 173.07347656 43.33804688 173.07347656 44.703125 173.1484375 C45.87359375 173.22320312 47.0440625 173.29796875 48.25 173.375 C49.41015625 173.44460938 50.5703125 173.51421875 51.765625 173.5859375 C54.80116472 173.97454524 56.35080831 174.63510205 59 176 C61.81635672 176.35970884 64.60708245 176.50241967 67.44140625 176.65625 C70 177 70 177 73 179 C74.98636298 179.70626239 76.98848259 180.36893571 79 181 C81 181.66666667 83 182.33333333 85 183 C85 183.66 85 184.32 85 185 C85.59167969 185.03738281 86.18335938 185.07476562 86.79296875 185.11328125 C91.50470029 185.50528502 95.24226155 185.84834839 99 189 C99 189.99 99 190.98 99 192 C101.31 192 103.62 192 106 192 C106 192.66 106 193.32 106 194 C107.65 194.33 109.3 194.66 111 195 C111 195.99 111 196.98 111 198 C111.928125 197.95875 112.85625 197.9175 113.8125 197.875 C117 198 117 198 120 200 C120 201.32 120 202.64 120 204 C120.99 204 121.98 204 123 204 C123 204.99 123 205.98 123 207 C124.98 207 126.96 207 129 207 C129.33 208.98 129.66 210.96 130 213 C130.99 213 131.98 213 133 213 C133 213.99 133 214.98 133 216 C134.65 216 136.3 216 138 216 C138.33 217.65 138.66 219.3 139 221 C139.99 221.33 140.98 221.66 142 222 C142 222.99 142 223.98 142 225 C142.99 225 143.98 225 145 225 C145 225.99 145 226.98 145 228 C145.66 228 146.32 228 147 228 C149.3283935 229.76957906 149.95288806 230.81583516 150.6875 233.6875 C150.790625 234.450625 150.89375 235.21375 151 236 C151.66 236 152.32 236 153 236 C153.33 236.99 153.66 237.98 154 239 C154.66 239.33 155.32 239.66 156 240 C156 240.99 156 241.98 156 243 C156.99 243 157.98 243 159 243 C159.67354499 244.43429001 160.33859701 245.87257057 161 247.3125 C161.37125 248.11300781 161.7425 248.91351563 162.125 249.73828125 C163 252 163 252 163 255 C163.66 255 164.32 255 165 255 C165.1953125 257.05078125 165.390625 259.1015625 165.5859375 261.15234375 C165.72257812 261.76207031 165.85921875 262.37179687 166 263 C166.66 263.33 167.32 263.66 168 264 C168 264.99 168 265.98 168 267 C169.32 267 170.64 267 172 267 C172.99 270.96 173.98 274.92 175 279 C176.65 279 178.3 279 180 279 C177.54453946 295.66918332 174.38622992 311.26199169 160.125 321.875 C152.55792928 327.18477505 144.7012642 328.54188201 135.625 328.4375 C134.23909668 328.42614014 134.23909668 328.42614014 132.82519531 328.41455078 C119.28739413 328.08767754 108.46649701 322.35645118 99.09765625 312.65234375 C94.80281547 307.2218095 91.59792404 301.05638173 88.18310547 295.05078125 C71.53305537 266.1897782 46.23089072 246.8852016 14.09594727 237.9987793 C-20.58676648 228.92858405 -56.60068615 232.18060113 -91.90625 235.02734375 C-114.67494612 236.8479685 -137.33635692 238.39877272 -160.1875 238.4375 C-161.15603912 238.44340149 -162.12457825 238.44930298 -163.12246704 238.4553833 C-179.64393482 238.52443892 -196.32917459 237.36289953 -212.1875 232.375 C-213.00009277 232.12411621 -213.81268555 231.87323242 -214.64990234 231.61474609 C-227.37030801 227.47028403 -239.11504859 221.05532156 -249 212 C-250.11375 211.02353516 -250.11375 211.02353516 -251.25 210.02734375 C-271.45623577 191.25939907 -278.50072681 164.2255829 -280.22265625 137.55078125 C-281.03581114 107.67617771 -271.16474232 80.83482834 -251 59 C-250.40703125 58.33742188 -249.8140625 57.67484375 -249.203125 56.9921875 C-214.83060955 20.40757947 -157.78888457 11.48334804 -110.24707031 9.97094727 C-107.43761063 9.87875139 -104.62911548 9.77036224 -101.8203125 9.66015625 C-100.98154572 9.63816666 -100.14277893 9.61617706 -99.27859497 9.59352112 C-90.30726781 9.22335232 -82.8164283 7.16177746 -75.6875 1.5625 C-54.06424883 -14.11657389 -23.77908354 -7.44135108 0 0 Z " fill="#000000" transform="translate(439,122)"/>
<path d="M0 0 C0 0.33 0 0.66 0 1 C-11.88 1.33 -23.76 1.66 -36 2 C-36.33 2.66 -36.66 3.32 -37 4 C-50.86 4 -64.72 4 -79 4 C-79 4.99 -79 5.98 -79 7 C-86.92 7 -94.84 7 -103 7 C-103 7.99 -103 8.98 -103 10 C-127.09 10 -151.18 10 -176 10 C-176 9.01 -176 8.02 -176 7 C-179.96 7 -183.92 7 -188 7 C-188 6.01 -188 5.02 -188 4 C-192.95 4 -197.9 4 -203 4 C-203.33 3.34 -203.66 2.68 -204 2 C-207.27555608 1.52998967 -207.27555608 1.52998967 -211.0625 1.375 C-212.99802734 1.26285156 -212.99802734 1.26285156 -214.97265625 1.1484375 C-216.47119141 1.07496094 -216.47119141 1.07496094 -218 1 C-218 0.01 -218 -0.98 -218 -2 C-219.98 -2 -221.96 -2 -224 -2 C-224 -2.99 -224 -3.98 -224 -5 C-222.80963135 -4.90912109 -222.80963135 -4.90912109 -221.59521484 -4.81640625 C-187.44756884 -2.25447061 -153.89313441 -3.30607714 -119.7734375 -6.0234375 C-37.12289231 -12.59826662 -37.12289231 -12.59826662 0 0 Z " fill="#000000" transform="translate(434,398)"/>
<path d="M0 0 C0.68299222 2.1248647 1.11910676 3.54411968 0.54711914 5.73339844 C-0.16396278 8.67926393 -0.22004031 11.4869813 -0.31640625 14.515625 C-0.35830078 15.76601562 -0.40019531 17.01640625 -0.44335938 18.3046875 C-0.50233398 20.25761719 -0.50233398 20.25761719 -0.5625 22.25 C-0.60568359 23.56742188 -0.64886719 24.88484375 -0.69335938 26.2421875 C-0.79941917 29.49468788 -0.90148024 32.74726392 -1 36 C-0.34 36 0.32 36 1 36 C1 37.98 1 39.96 1 42 C1.66 42 2.32 42 3 42 C6.10123881 45.2304571 6.86225909 48.75243395 8 53 C8.37125 53.7425 8.7425 54.485 9.125 55.25 C10 57 10 57 10 60 C10.66 60 11.32 60 12 60 C14 63 14 63 14 67 C14.66 67 15.32 67 16 67 C16.350625 67.721875 16.70125 68.44375 17.0625 69.1875 C20.66240558 74.41316939 27.12754376 76.9162252 33 79 C33 79.66 33 80.32 33 81 C35.97 81 38.94 81 42 81 C42.33 81.66 42.66 82.32 43 83 C45.05931532 83.42961221 45.05931532 83.42961221 47.4375 83.5625 C51.81333333 83.90666667 51.81333333 83.90666667 54 85 C61.86561083 86.29355947 69.8677623 86.1507528 77.8125 86.125 C78.99392578 86.12886719 80.17535156 86.13273437 81.39257812 86.13671875 C94.53878142 86.82038658 94.53878142 86.82038658 107 84 C109.57726202 83.86750302 112.13203052 83.79015131 114.7109375 83.75390625 C116.28125553 83.72096591 117.8515679 83.6877543 119.421875 83.65429688 C121.89937411 83.60689825 124.37685051 83.56247066 126.85449219 83.52319336 C129.24438548 83.48342531 131.63380579 83.43189091 134.0234375 83.37890625 C135.13143204 83.36628502 135.13143204 83.36628502 136.2618103 83.35340881 C140.26465811 83.28279372 140.26465811 83.28279372 144 81.99780273 C147.17003985 80.41626552 150.50426807 80.6810565 153.9765625 80.65625 C154.74302094 80.6416272 155.50947937 80.62700439 156.29916382 80.61193848 C159.57102114 80.54976581 162.84306233 80.50996587 166.11523438 80.46826172 C168.5067141 80.43459894 170.89778823 80.38948587 173.2890625 80.34375 C174.40312973 80.33583435 174.40312973 80.33583435 175.53970337 80.32775879 C179.72675605 80.38073225 179.72675605 80.38073225 183 78 C184.90419006 77.75276184 184.90419006 77.75276184 187.25024414 77.75708008 C188.56654564 77.75246513 188.56654564 77.75246513 189.90943909 77.74775696 C191.33291908 77.75853523 191.33291908 77.75853523 192.78515625 77.76953125 C193.75658066 77.76998947 194.72800507 77.77044769 195.72886658 77.7709198 C197.78418193 77.77394376 199.83949495 77.78183434 201.89477539 77.79418945 C205.05297905 77.81244497 208.21088973 77.81469919 211.36914062 77.81445312 C213.36198172 77.81936818 215.35482082 77.82519645 217.34765625 77.83203125 C218.29866714 77.83314407 219.24967804 77.8342569 220.22950745 77.83540344 C221.10388962 77.84178329 221.97827179 77.84816315 222.87915039 77.85473633 C224.03925377 77.86045403 224.03925377 77.86045403 225.22279358 77.86628723 C227 78 227 78 228 79 C229.69279985 79.20336797 231.39283893 79.34723675 233.09375 79.46484375 C234.63869141 79.58182617 234.63869141 79.58182617 236.21484375 79.70117188 C238.4046718 79.8587041 240.5947828 80.01235138 242.78515625 80.16210938 C243.81511719 80.24138672 244.84507812 80.32066406 245.90625 80.40234375 C246.85822266 80.46929443 247.81019531 80.53624512 248.79101562 80.60522461 C249.88446289 80.80063843 249.88446289 80.80063843 251 81 C251.33 81.66 251.66 82.32 252 83 C254.18228714 83.358847 254.18228714 83.358847 256.8125 83.4375 C262.97625918 83.89796432 269.21460549 84.73614997 275 87 C275.33 87.99 275.66 88.98 276 90 C278.97 90 281.94 90 285 90 C285.33 90.66 285.66 91.32 286 92 C286.825 92.165 287.65 92.33 288.5 92.5 C289.325 92.665 290.15 92.83 291 93 C291.33 93.66 291.66 94.32 292 95 C294.32156597 95.40729228 296.6568787 95.74438677 299 96 C299.33 96.99 299.66 97.98 300 99 C301.11375 99.185625 301.11375 99.185625 302.25 99.375 C304.82930049 99.96120466 306.7482162 100.63284555 309 102 C309.33 102.66 309.66 103.32 310 104 C312.93230451 105.98128683 315.51102321 107.35389319 319 108 C319 108.99 319 109.98 319 111 C319.5775 111.28875 320.155 111.5775 320.75 111.875 C322.83333333 112.91666667 324.91666667 113.95833333 327 115 C327 115.66 327 116.32 327 117 C327.99 117.33 328.98 117.66 330 118 C330 118.66 330 119.32 330 120 C330.99 120 331.98 120 333 120 C334.37868281 121.62935241 335.71274093 123.29749607 337 125 C337.66 125.33 338.32 125.66 339 126 C339 126.99 339 127.98 339 129 C339.66 129 340.32 129 341 129 C342.54331236 130.67216576 344.01114909 132.41451538 345.4375 134.1875 C346.21996094 135.15042969 347.00242187 136.11335937 347.80859375 137.10546875 C353 143.96256684 353 143.96256684 353 147 C353.66 147 354.32 147 355 147 C361.78147689 156.54300614 366.43474211 167.91924542 370 179 C369.01 179 368.02 179 367 179 C367 178.01 367 177.02 367 176 C366.01 175.67 365.02 175.34 364 175 C364 172.36 364 169.72 364 167 C363.34 167 362.68 167 362 167 C361.32645501 165.56570999 360.66140299 164.12742943 360 162.6875 C359.62875 161.88699219 359.2575 161.08648437 358.875 160.26171875 C358 158 358 158 358 155 C357.01 155 356.02 155 355 155 C355 154.01 355 153.02 355 152 C354.01 151.67 353.02 151.34 352 151 C352 150.01 352 149.02 352 148 C351.34 148 350.68 148 350 148 C349.67 146.35 349.34 144.7 349 143 C348.01 142.67 347.02 142.34 346 142 C346 141.34 346 140.68 346 140 C345.34 140 344.68 140 344 140 C344 139.01 344 138.02 344 137 C343.01 137 342.02 137 341 137 C340.67 136.01 340.34 135.02 340 134 C339.2265625 133.2575 339.2265625 133.2575 338.4375 132.5 C337 131 337 131 337 128 C335.35 128 333.7 128 332 128 C332 127.01 332 126.02 332 125 C331.01 125 330.02 125 329 125 C328.67 123.02 328.34 121.04 328 119 C326.02 119 324.04 119 322 119 C322 118.01 322 117.02 322 116 C321.01 116 320.02 116 319 116 C319 114.68 319 113.36 319 112 C316.03 111.34 313.06 110.68 310 110 C310 109.01 310 108.02 310 107 C308.35 106.67 306.7 106.34 305 106 C305 105.34 305 104.68 305 104 C302.69 104 300.38 104 298 104 C298 103.01 298 102.02 298 101 C297.360625 100.855625 296.72125 100.71125 296.0625 100.5625 C294 100 294 100 293 99 C291.48834346 98.60851239 289.96530368 98.26027543 288.4375 97.9375 C287.61121094 97.76089844 286.78492188 97.58429688 285.93359375 97.40234375 C285.29550781 97.26957031 284.65742187 97.13679688 284 97 C284 96.34 284 95.68 284 95 C283.195625 94.9175 282.39125 94.835 281.5625 94.75 C278.50026443 94.10531883 276.55658932 93.36217384 273.8125 92 C269.36054924 89.90230117 265.36616584 89.45673927 260.48046875 89.2734375 C258 89 258 89 256.09765625 88.046875 C253.21486405 86.60816306 250.43108004 86.32035121 247.25 85.875 C246.07953125 85.70742188 244.9090625 85.53984375 243.703125 85.3671875 C242.36507812 85.18542969 242.36507812 85.18542969 241 85 C241 84.34 241 83.68 241 83 C194.36808546 83.13528994 194.36808546 83.13528994 147.8125 85.4375 C146.98661377 85.49894196 146.16072754 85.56038391 145.30981445 85.62368774 C136.96537151 85.63717182 136.96537151 85.63717182 130 89 C127.05903263 89.17539436 124.21346651 89.23132375 121.2734375 89.1953125 C120.41062164 89.1924826 119.54780579 89.18965271 118.65884399 89.18673706 C115.8974228 89.17552333 113.1363235 89.15041684 110.375 89.125 C108.50521301 89.11497173 106.63542095 89.10584562 104.765625 89.09765625 C100.17695891 89.07558012 95.58853407 89.04104234 91 89 C91 89.66 91 90.32 91 91 C86.52084672 91.02886338 82.04171709 91.04675187 77.5625 91.0625 C76.28310547 91.07087891 75.00371094 91.07925781 73.68554688 91.08789062 C72.47060547 91.09111328 71.25566406 91.09433594 70.00390625 91.09765625 C68.87799072 91.10289307 67.7520752 91.10812988 66.59204102 91.11352539 C64 91 64 91 63 90 C60.9909061 89.78685033 58.98101383 89.57932405 56.96826172 89.40405273 C50.06421225 88.79832653 44.10290345 88.18959114 37.90234375 84.88671875 C34.69014651 83.38945227 31.50794155 83.25512302 28 83 C27.67 82.01 27.34 81.02 27 80 C26.34 80 25.68 80 25 80 C25 79.01 25 78.02 25 77 C23.02 76.67 21.04 76.34 19 76 C19 75.34 19 74.68 19 74 C17.68 74 16.36 74 15 74 C15 73.01 15 72.02 15 71 C13.515 70.505 13.515 70.505 12 70 C10.97862543 68.34634594 9.98387706 66.67623498 9 65 C7.96987155 63.86442533 6.9272869 62.74007252 5.875 61.625 C2.82567884 58.15714456 2.47775318 55.61828073 2 51 C1.37125088 49.58668132 0.70071039 48.19155768 0 46.8125 C-5.51292105 34.90778642 -4.24768556 15.81180767 -2 3 C-1.34 2.01 -0.68 1.02 0 0 Z " fill="#1C888E" transform="translate(240,210)"/>
<path d="M0 0 C0.68299222 2.1248647 1.11910676 3.54411968 0.54711914 5.73339844 C-0.16396278 8.67926393 -0.22004031 11.4869813 -0.31640625 14.515625 C-0.35830078 15.76601562 -0.40019531 17.01640625 -0.44335938 18.3046875 C-0.50233398 20.25761719 -0.50233398 20.25761719 -0.5625 22.25 C-0.60568359 23.56742188 -0.64886719 24.88484375 -0.69335938 26.2421875 C-0.79941917 29.49468788 -0.90148024 32.74726392 -1 36 C-0.34 36 0.32 36 1 36 C1 37.98 1 39.96 1 42 C1.66 42 2.32 42 3 42 C6.10123881 45.2304571 6.86225909 48.75243395 8 53 C8.37125 53.7425 8.7425 54.485 9.125 55.25 C10 57 10 57 10 60 C10.66 60 11.32 60 12 60 C14 63 14 63 14 67 C14.66 67 15.32 67 16 67 C16.350625 67.721875 16.70125 68.44375 17.0625 69.1875 C20.66240558 74.41316939 27.12754376 76.9162252 33 79 C33 79.66 33 80.32 33 81 C35.97 81 38.94 81 42 81 C42.33 81.66 42.66 82.32 43 83 C45.05931532 83.42961221 45.05931532 83.42961221 47.4375 83.5625 C51.81333333 83.90666667 51.81333333 83.90666667 54 85 C61.86561083 86.29355947 69.8677623 86.1507528 77.8125 86.125 C78.99392578 86.12886719 80.17535156 86.13273437 81.39257812 86.13671875 C94.53878142 86.82038658 94.53878142 86.82038658 107 84 C109.55106029 83.84355828 112.07918663 83.74178611 114.6328125 83.68359375 C115.38464813 83.66281265 116.13648376 83.64203156 116.91110229 83.62062073 C119.31564085 83.55517295 121.72028967 83.49626262 124.125 83.4375 C125.75391771 83.39431023 127.38282422 83.35069579 129.01171875 83.30664062 C133.00769915 83.19949649 137.00379059 83.09821567 141 83 C141.33 83.66 141.66 84.32 142 85 C140.94498291 85.05534912 139.88996582 85.11069824 138.80297852 85.16772461 C134.90216257 85.37360875 131.00170106 85.58563795 127.10131836 85.79956055 C125.41065403 85.89141797 123.71989733 85.98159109 122.02905273 86.07006836 C119.60374317 86.19726743 117.17882635 86.33044877 114.75390625 86.46484375 C113.61327477 86.52272316 113.61327477 86.52272316 112.44960022 86.58177185 C108.92677133 86.48140678 108.92677133 86.48140678 106 88 C102.92474491 88.11421828 99.87295714 88.16422057 96.796875 88.16796875 C95.37547211 88.17296135 95.37547211 88.17296135 93.925354 88.17805481 C91.90092454 88.18313773 89.87648662 88.18546272 87.85205078 88.18530273 C84.83220277 88.18744177 81.8127496 88.20544643 78.79296875 88.22460938 C68.90875403 88.25398191 59.11276505 88.01310315 49.265625 87.11328125 C47.95123444 86.99668404 47.95123444 86.99668404 46.61029053 86.87773132 C45.79820129 86.79473282 44.98611206 86.71173431 44.14941406 86.6262207 C43.44173889 86.55409866 42.73406372 86.48197662 42.00494385 86.40766907 C39.74937297 85.94903953 38.02911505 85.06815785 36 84 C33.33646245 83.48479018 30.70500869 83.27050087 28 83 C27.67 82.01 27.34 81.02 27 80 C26.34 80 25.68 80 25 80 C25 79.01 25 78.02 25 77 C23.02 76.67 21.04 76.34 19 76 C19 75.34 19 74.68 19 74 C17.68 74 16.36 74 15 74 C15 73.01 15 72.02 15 71 C13.515 70.505 13.515 70.505 12 70 C10.97862543 68.34634594 9.98387706 66.67623498 9 65 C7.96987155 63.86442533 6.9272869 62.74007252 5.875 61.625 C2.82567884 58.15714456 2.47775318 55.61828073 2 51 C1.37125088 49.58668132 0.70071039 48.19155768 0 46.8125 C-5.51292105 34.90778642 -4.24768556 15.81180767 -2 3 C-1.34 2.01 -0.68 1.02 0 0 Z " fill="#0F4E51" transform="translate(240,210)"/>
<path d="M0 0 C1.83801111 0.00374147 3.67602425 0.00658306 5.51403809 0.00857544 C10.29459377 0.01612275 15.07502316 0.03569197 19.85552979 0.0579834 C24.75653374 0.07863642 29.65755859 0.08761827 34.55859375 0.09765625 C44.13286724 0.11894853 53.70704802 0.15297341 63.28125 0.1953125 C63.28125 0.5253125 63.28125 0.8553125 63.28125 1.1953125 C62.11783081 1.20411186 62.11783081 1.20411186 60.9309082 1.21308899 C15.47512878 1.37158847 15.47512878 1.37158847 -29.90625 3.6328125 C-30.73213623 3.69425446 -31.55802246 3.75569641 -32.40893555 3.81900024 C-40.75337849 3.83248432 -40.75337849 3.83248432 -47.71875 7.1953125 C-50.65971737 7.37070686 -53.50528349 7.42663625 -56.4453125 7.390625 C-57.30812836 7.3877951 -58.17094421 7.38496521 -59.05990601 7.38204956 C-61.8213272 7.37083583 -64.5824265 7.34572934 -67.34375 7.3203125 C-69.21353699 7.31028423 -71.08332905 7.30115812 -72.953125 7.29296875 C-77.54179109 7.27089262 -82.13021593 7.23635484 -86.71875 7.1953125 C-86.71875 7.8553125 -86.71875 8.5153125 -86.71875 9.1953125 C-91.19790328 9.22417588 -95.67703291 9.24206437 -100.15625 9.2578125 C-101.43564453 9.26619141 -102.71503906 9.27457031 -104.03320312 9.28320312 C-105.85561523 9.28803711 -105.85561523 9.28803711 -107.71484375 9.29296875 C-108.84075928 9.29820557 -109.9666748 9.30344238 -111.12670898 9.30883789 C-113.71875 9.1953125 -113.71875 9.1953125 -114.71875 8.1953125 C-116.04588344 7.99405775 -117.38168715 7.8489996 -118.71875 7.73046875 C-119.523125 7.65248047 -120.3275 7.57449219 -121.15625 7.49414062 C-122.86423051 7.33662108 -124.57257249 7.18297288 -126.28125 7.03320312 C-127.085625 6.95392578 -127.89 6.87464844 -128.71875 6.79296875 C-129.8325 6.69254272 -129.8325 6.69254272 -130.96875 6.59008789 C-131.835 6.39467407 -131.835 6.39467407 -132.71875 6.1953125 C-133.04875 5.5353125 -133.37875 4.8753125 -133.71875 4.1953125 C-132.76419922 4.2660498 -131.80964844 4.33678711 -130.82617188 4.40966797 C-119.3020538 5.20530896 -107.81400935 5.35002066 -96.26513672 5.32568359 C-93.16759568 5.32022231 -90.07019347 5.32571668 -86.97265625 5.33203125 C-85.00260385 5.33137209 -83.03255153 5.33009431 -81.0625 5.328125 C-79.67375671 5.33116135 -79.67375671 5.33116135 -78.25695801 5.33425903 C-74.16417966 5.73789492 -74.16417966 5.73789492 -70.71875 4.1953125 C-68.3160274 3.98778294 -65.93511296 3.84001135 -63.52734375 3.73046875 C-62.00846181 3.6517262 -60.48958166 3.5729489 -58.97070312 3.49414062 C-56.58870498 3.3762391 -54.20662778 3.26023355 -51.82446289 3.14575195 C-49.516809 3.0331656 -47.20960846 2.91323585 -44.90234375 2.79296875 C-44.2224791 2.76268082 -43.54261444 2.73239288 -42.84214783 2.70118713 C-37.97163011 2.44473287 -33.20740214 1.85014319 -28.37719727 1.17016602 C-18.91838812 -0.09283386 -9.52706138 -0.05792562 0 0 Z " fill="#146468" transform="translate(417.71875,291.8046875)"/>
<path d="M0 0 C3.63 1.65 7.26 3.3 11 5 C11 5.66 11 6.32 11 7 C11.99 7 12.98 7 14 7 C15.37868281 8.62935241 16.71274093 10.29749607 18 12 C18.66 12.33 19.32 12.66 20 13 C20 13.99 20 14.98 20 16 C20.66 16 21.32 16 22 16 C23.54331236 17.67216576 25.01114909 19.41451538 26.4375 21.1875 C27.21996094 22.15042969 28.00242187 23.11335938 28.80859375 24.10546875 C34 30.96256684 34 30.96256684 34 34 C34.66 34 35.32 34 36 34 C42.78147689 43.54300614 47.43474211 54.91924542 51 66 C50.01 66 49.02 66 48 66 C48 65.01 48 64.02 48 63 C47.01 62.67 46.02 62.34 45 62 C45 59.36 45 56.72 45 54 C44.34 54 43.68 54 43 54 C42.32645501 52.56570999 41.66140299 51.12742943 41 49.6875 C40.62875 48.88699219 40.2575 48.08648437 39.875 47.26171875 C39 45 39 45 39 42 C38.01 42 37.02 42 36 42 C36 41.01 36 40.02 36 39 C35.01 38.67 34.02 38.34 33 38 C33 37.01 33 36.02 33 35 C32.34 35 31.68 35 31 35 C30.505 32.525 30.505 32.525 30 30 C29.01 29.67 28.02 29.34 27 29 C27 28.34 27 27.68 27 27 C26.34 27 25.68 27 25 27 C25 26.01 25 25.02 25 24 C24.01 24 23.02 24 22 24 C21.67 23.01 21.34 22.02 21 21 C20.484375 20.505 19.96875 20.01 19.4375 19.5 C18 18 18 18 18 15 C16.35 15 14.7 15 13 15 C13 14.01 13 13.02 13 12 C12.01 12 11.02 12 10 12 C9.67 10.02 9.34 8.04 9 6 C7.02 6 5.04 6 3 6 C3 5.01 3 4.02 3 3 C2.01 3 1.02 3 0 3 C0 2.01 0 1.02 0 0 Z " fill="#176066" transform="translate(559,323)"/>
<path d="M0 0 C7.5276878 -0.0462929 15.05536088 -0.08185365 22.58315849 -0.10362434 C26.07843927 -0.11407198 29.57362283 -0.12824883 33.06884766 -0.15087891 C37.08497056 -0.17671953 41.10099097 -0.18646466 45.1171875 -0.1953125 C47.00472244 -0.21079636 47.00472244 -0.21079636 48.9303894 -0.22659302 C50.09144196 -0.22674408 51.25249451 -0.22689514 52.44873047 -0.22705078 C53.47465302 -0.231492 54.50057556 -0.23593323 55.55758667 -0.24050903 C58 0 58 0 60 2 C62.89967757 2.30675232 65.71783178 2.51173371 68.625 2.625 C69.42679687 2.66367188 70.22859375 2.70234375 71.0546875 2.7421875 C73.03607556 2.83653931 75.01800645 2.91936215 77 3 C77 3.99 77 4.98 77 6 C78.44632813 5.98259766 78.44632813 5.98259766 79.921875 5.96484375 C81.18515625 5.95582031 82.4484375 5.94679687 83.75 5.9375 C85.00296875 5.92589844 86.2559375 5.91429687 87.546875 5.90234375 C90.28536501 5.97978973 92.41880293 6.17219185 95 7 C95 7.66 95 8.32 95 9 C94.27780273 8.84007568 93.55560547 8.68015137 92.81152344 8.51538086 C90.16299451 8.02987855 87.70316264 7.83062662 85.015625 7.75390625 C84.07976562 7.72103516 83.14390625 7.68816406 82.1796875 7.65429688 C80.24229144 7.5935918 78.30478698 7.53624408 76.3671875 7.48242188 C71.05361001 7.28953173 66.15456975 6.73811468 60.99169922 5.46557617 C58.32045604 4.84115098 55.66974975 4.58251264 52.9375 4.375 C51.52791016 4.26285156 51.52791016 4.26285156 50.08984375 4.1484375 C49.40019531 4.09945312 48.71054687 4.05046875 48 4 C48 3.01 48 2.02 48 1 C42.61046814 1.1190528 37.22109085 1.24334704 31.83178711 1.37231445 C30.00174164 1.41539143 28.17166298 1.45708323 26.34155273 1.49731445 C23.69765253 1.55568347 21.05391526 1.61917882 18.41015625 1.68359375 C17.60353043 1.70030624 16.7969046 1.71701874 15.96583557 1.73423767 C10.59294715 1.87160389 5.33520307 2.34504497 0 3 C0 2.01 0 1.02 0 0 Z " fill="#1A9195" transform="translate(343,143)"/>
<path d="M0 0 C0.86681396 0.06566162 1.73362793 0.13132324 2.62670898 0.19897461 C17.06400019 1.17520622 31.51644184 1.32518031 45.98101807 1.53222656 C49.48803829 1.58323328 52.99499145 1.63849807 56.50195312 1.69335938 C63.33457693 1.79964082 70.16726181 1.90135196 77 2 C77 1.34 77 0.68 77 0 C80.63 0 84.26 0 88 0 C87.34 0.99 86.68 1.98 86 3 C83.0204901 3.26653946 80.2511418 3.34767784 77.2734375 3.29296875 C76.41062164 3.28872391 75.54780579 3.28447906 74.65884399 3.28010559 C71.89724803 3.26328392 69.13637617 3.22562598 66.375 3.1875 C64.50521886 3.17245764 62.6354263 3.15876846 60.765625 3.14648438 C56.17680342 3.11336906 51.58852456 3.06156339 47 3 C47 3.66 47 4.32 47 5 C42.52084672 5.02886338 38.04171709 5.04675187 33.5625 5.0625 C32.28310547 5.07087891 31.00371094 5.07925781 29.68554688 5.08789062 C27.86313477 5.09272461 27.86313477 5.09272461 26.00390625 5.09765625 C24.87799072 5.10289307 23.7520752 5.10812988 22.59204102 5.11352539 C20 5 20 5 19 4 C17.67286656 3.79874525 16.33706285 3.6536871 15 3.53515625 C14.195625 3.45716797 13.39125 3.37917969 12.5625 3.29882812 C10.85451949 3.14130858 9.14617751 2.98766038 7.4375 2.83789062 C6.633125 2.75861328 5.82875 2.67933594 5 2.59765625 C3.88625 2.49723022 3.88625 2.49723022 2.75 2.39477539 C1.88375 2.19936157 1.88375 2.19936157 1 2 C0.67 1.34 0.34 0.68 0 0 Z " fill="#12565A" transform="translate(284,296)"/>
<path d="M0 0 C1.98 0 3.96 0 6 0 C6.33 0.66 6.66 1.32 7 2 C9.05931532 2.42961221 9.05931532 2.42961221 11.4375 2.5625 C15.81333333 2.90666667 15.81333333 2.90666667 18 4 C25.86561083 5.29355947 33.8677623 5.1507528 41.8125 5.125 C42.99392578 5.12886719 44.17535156 5.13273437 45.39257812 5.13671875 C58.53878142 5.82038658 58.53878142 5.82038658 71 3 C73.55106029 2.84355828 76.07918663 2.74178611 78.6328125 2.68359375 C79.38464813 2.66281265 80.13648376 2.64203156 80.91110229 2.62062073 C83.31564085 2.55517295 85.72028967 2.49626262 88.125 2.4375 C89.75391771 2.39431023 91.38282422 2.35069579 93.01171875 2.30664062 C97.00769915 2.19949649 101.00379059 2.09821567 105 2 C105.495 2.99 105.495 2.99 106 4 C104.41747437 4.08302368 104.41747437 4.08302368 102.80297852 4.16772461 C98.90216257 4.37360875 95.00170106 4.58563795 91.10131836 4.79956055 C89.41065403 4.89141797 87.71989733 4.98159109 86.02905273 5.07006836 C83.60374317 5.19726743 81.17882635 5.33044877 78.75390625 5.46484375 C77.61327477 5.52272316 77.61327477 5.52272316 76.44960022 5.58177185 C72.92677133 5.48140678 72.92677133 5.48140678 70 7 C66.87799132 7.1141029 63.77906409 7.1642152 60.65625 7.16796875 C59.22061707 7.17296135 59.22061707 7.17296135 57.75598145 7.17805481 C55.71476726 7.1831357 53.67354472 7.18546278 51.63232422 7.18530273 C48.56853547 7.18745192 45.50512934 7.20548904 42.44140625 7.22460938 C33.34391181 7.25137652 24.32784501 7.15020577 15.28125 6.11328125 C14.2510675 5.99668404 14.2510675 5.99668404 13.20007324 5.87773132 C9.77815137 5.42874436 6.97049312 4.78896164 4 3 C4 2.34 4 1.68 4 1 C2.68 0.67 1.36 0.34 0 0 Z " fill="#1E9197" transform="translate(276,291)"/>
<path d="M0 0 C1.80598454 0.01006391 3.6119746 0.01918365 5.41796875 0.02734375 C9.77878587 0.04905486 14.13932923 0.08339055 18.5 0.125 C18.5 1.115 18.5 2.105 18.5 3.125 C22.13 3.125 25.76 3.125 29.5 3.125 C29.5 3.455 29.5 3.785 29.5 4.125 C27.75009878 4.15292396 26.00005353 4.17179439 24.25 4.1875 C22.78820312 4.20490234 22.78820312 4.20490234 21.296875 4.22265625 C18.11480265 4.14081283 15.01845264 3.91911382 11.8515625 3.62890625 C5.59858051 3.08274129 -0.60098129 2.97219136 -6.875 3 C-8.50646973 3.00398804 -8.50646973 3.00398804 -10.17089844 3.00805664 C-24.42508873 3.08395142 -24.42508873 3.08395142 -38.5 5.125 C-36.5 2.125 -36.5 2.125 -33.52539062 1.39892578 C-22.31852009 0.08504608 -11.27519195 -0.11093098 0 0 Z " fill="#25D2D8" transform="translate(372.5,143.875)"/>
<path d="M0 0 C0.68299222 2.1248647 1.11910676 3.54411968 0.54711914 5.73339844 C-0.16396278 8.67926393 -0.22004031 11.4869813 -0.31640625 14.515625 C-0.35830078 15.76601562 -0.40019531 17.01640625 -0.44335938 18.3046875 C-0.50233398 20.25761719 -0.50233398 20.25761719 -0.5625 22.25 C-0.60568359 23.56742188 -0.64886719 24.88484375 -0.69335938 26.2421875 C-0.79941917 29.49468788 -0.90148024 32.74726392 -1 36 C-0.34 36 0.32 36 1 36 C1 37.98 1 39.96 1 42 C1.66 42 2.32 42 3 42 C6.10123881 45.2304571 6.86225909 48.75243395 8 53 C8.37125 53.7425 8.7425 54.485 9.125 55.25 C10 57 10 57 10 60 C10.66 60 11.32 60 12 60 C12.66 61.65 13.32 63.3 14 65 C10.45034523 63.56323497 8.92912058 61.88698102 6.875 58.6875 C6.37742188 57.92824219 5.87984375 57.16898437 5.3671875 56.38671875 C3.98942233 53.98153441 2.9979062 51.58181689 2 49 C1.02308143 47.31970006 0.02611949 45.65071396 -1 44 C-6.01114624 33.97770752 -3.91602455 13.92133994 -2 3 C-1.34 2.01 -0.68 1.02 0 0 Z " fill="#188085" transform="translate(240,210)"/>
<path d="M0 0 C1.32 0.33 2.64 0.66 4 1 C0.0530957 4.47327579 -4.23177731 5.44822588 -9.3125 6.4609375 C-15.21059226 7.55460666 -15.21059226 7.55460666 -20 11 C-20.33 11.99 -20.66 12.98 -21 14 C-22.64059863 14.53570568 -24.28911993 15.05584064 -25.96484375 15.46875 C-29.41034686 16.36815196 -32.68389496 17.71430673 -36 19 C-37.299375 19.4640625 -37.299375 19.4640625 -38.625 19.9375 C-42.26201524 21.56458576 -46.1716034 23.34320681 -48 27 C-48.66 27 -49.32 27 -50 27 C-50 27.66 -50 28.32 -50 29 C-51.32 29.33 -52.64 29.66 -54 30 C-54 29.34 -54 28.68 -54 28 C-52.36395804 26.62926214 -50.69321939 25.29944744 -49 24 C-48.46375 23.4225 -47.9275 22.845 -47.375 22.25 C-46 21 -46 21 -43 21 C-42.67 20.01 -42.34 19.02 -42 18 C-41.34 18 -40.68 18 -40 18 C-39.67 17.01 -39.34 16.02 -39 15 C-37.02 15 -35.04 15 -33 15 C-33 14.01 -33 13.02 -33 12 C-30.03 12 -27.06 12 -24 12 C-23.67 11.01 -23.34 10.02 -23 9 C-22.34 9 -21.68 9 -21 9 C-21 8.34 -21 7.68 -21 7 C-20.31292969 6.87882813 -19.62585938 6.75765625 -18.91796875 6.6328125 C-18.01691406 6.46523437 -17.11585938 6.29765625 -16.1875 6.125 C-15.29417969 5.96257812 -14.40085937 5.80015625 -13.48046875 5.6328125 C-10.77272154 5.08811551 -10.77272154 5.08811551 -8 3 C-5.66800612 2.92094936 -3.33167378 2.91201231 -1 3 C-0.67 2.01 -0.34 1.02 0 0 Z " fill="#22C1C7" transform="translate(316,149)"/>
<path d="M0 0 C2.97 0 5.94 0 9 0 C9.33 0.66 9.66 1.32 10 2 C11.2375 2.2475 11.2375 2.2475 12.5 2.5 C13.7375 2.7475 13.7375 2.7475 15 3 C15.33 3.66 15.66 4.32 16 5 C18.32156597 5.40729228 20.6568787 5.74438677 23 6 C23.33 6.99 23.66 7.98 24 9 C24.7425 9.12375 25.485 9.2475 26.25 9.375 C28.82930049 9.96120466 30.7482162 10.63284555 33 12 C33.495 12.99 33.495 12.99 34 14 C36.93230451 15.98128683 39.51102321 17.35389319 43 18 C43 18.99 43 19.98 43 21 C43.5775 21.28875 44.155 21.5775 44.75 21.875 C46.83333333 22.91666667 48.91666667 23.95833333 51 25 C51 25.66 51 26.32 51 27 C47.08551482 25.56874399 43.70866662 23.72488708 40.1875 21.5 C39.21167969 20.8915625 38.23585938 20.283125 37.23046875 19.65625 C36.49441406 19.1096875 35.75835938 18.563125 35 18 C35 17.34 35 16.68 35 16 C34.42765625 15.86722656 33.8553125 15.73445313 33.265625 15.59765625 C31.02349125 15.00619683 28.91420381 14.26711146 26.75 13.4375 C26.04359375 13.16808594 25.3371875 12.89867187 24.609375 12.62109375 C24.07828125 12.41613281 23.5471875 12.21117187 23 12 C23 11.34 23 10.68 23 10 C22.2265625 9.8453125 22.2265625 9.8453125 21.4375 9.6875 C15.30868276 7.95885924 9.65242747 4.87865894 4 2 C2.68 1.34 1.36 0.68 0 0 Z " fill="#1A7A80" transform="translate(516,300)"/>
<path d="M0 0 C2.14353259 0.23817029 4.28694455 0.47748347 6.4296875 0.72265625 C8.05767045 0.89832006 9.68798147 1.05443624 11.3203125 1.18359375 C19.03860288 1.8424722 25.22006414 4.50742987 32.05078125 8.0234375 C33.92683527 8.96334433 35.81726147 9.80904642 37.75 10.625 C44.80487805 13.6097561 44.80487805 13.6097561 46 16 C48.32315031 16.7013284 50.65789079 17.36485174 53 18 C56.4322125 19.33474931 57.96116841 20.94175262 60 24 C58.68 24 57.36 24 56 24 C56 23.01 56 22.02 56 21 C54.35 20.67 52.7 20.34 51 20 C51 19.34 51 18.68 51 18 C48.69 18 46.38 18 44 18 C44 17.01 44 16.02 44 15 C43.360625 14.855625 42.72125 14.71125 42.0625 14.5625 C40 14 40 14 39 13 C37.48834346 12.60851239 35.96530368 12.26027543 34.4375 11.9375 C33.61121094 11.76089844 32.78492188 11.58429688 31.93359375 11.40234375 C31.29550781 11.26957031 30.65742187 11.13679688 30 11 C30 10.34 30 9.68 30 9 C29.195625 8.9175 28.39125 8.835 27.5625 8.75 C24.50026443 8.10531883 22.55658932 7.36217384 19.8125 6 C15.36054924 3.90230117 11.36616584 3.45673927 6.48046875 3.2734375 C3.88978844 2.98785069 2.23584275 2.30293866 0 1 C0 0.67 0 0.34 0 0 Z " fill="#104D51" transform="translate(494,296)"/>
<path d="M0 0 C3.63 1.65 7.26 3.3 11 5 C11 5.66 11 6.32 11 7 C11.99 7 12.98 7 14 7 C15.37868281 8.62935241 16.71274093 10.29749607 18 12 C18.66 12.33 19.32 12.66 20 13 C20 13.99 20 14.98 20 16 C20.66 16 21.32 16 22 16 C23.7265625 17.6796875 23.7265625 17.6796875 25.625 19.875 C26.25664063 20.59429687 26.88828125 21.31359375 27.5390625 22.0546875 C29 24 29 24 29 26 C27 26 27 26 25.375 24.625 C24 23 24 23 24 21 C22.35 20.67 20.7 20.34 19 20 C18.505 17.525 18.505 17.525 18 15 C16.35 15 14.7 15 13 15 C13 14.01 13 13.02 13 12 C12.01 12 11.02 12 10 12 C9.67 10.02 9.34 8.04 9 6 C7.02 6 5.04 6 3 6 C3 5.01 3 4.02 3 3 C2.01 3 1.02 3 0 3 C0 2.01 0 1.02 0 0 Z " fill="#166469" transform="translate(559,323)"/>
<path d="M0 0 C0.99 0.495 0.99 0.495 2 1 C2.44589193 2.85216648 2.88800031 4.70531388 3.3125 6.5625 C5.3987018 13.95903366 9.40813685 20.82974097 12.87890625 27.65234375 C13.91673823 29.82564348 14.7654547 31.97949798 15.5625 34.25 C16.87080966 37.94935836 18.70035821 40.82808029 21 44 C20.67 44.66 20.34 45.32 20 46 C14.74728722 41.10954328 12.43704286 35.82934773 9.96484375 29.20703125 C9.09504235 26.85193652 9.09504235 26.85193652 7 25 C6.27359045 22.68456957 5.61568542 20.34730065 5 18 C4.62836316 16.68654376 4.25351929 15.37398938 3.875 14.0625 C3.58625 13.051875 3.2975 12.04125 3 11 C2.34 11 1.68 11 1 11 C0.67 7.37 0.34 3.74 0 0 Z " fill="#123F44" transform="translate(180,416)"/>
<path d="M0 0 C9.57 0 19.14 0 29 0 C29 0.99 29 1.98 29 3 C30.44632812 2.98259766 30.44632812 2.98259766 31.921875 2.96484375 C33.18515625 2.95582031 34.4484375 2.94679687 35.75 2.9375 C37.00296875 2.92589844 38.2559375 2.91429687 39.546875 2.90234375 C42.28536501 2.97978973 44.41880293 3.17219185 47 4 C47 4.66 47 5.32 47 6 C46.27780273 5.84007568 45.55560547 5.68015137 44.81152344 5.51538086 C42.16299451 5.02987855 39.70316264 4.83062662 37.015625 4.75390625 C36.07976562 4.72103516 35.14390625 4.68816406 34.1796875 4.65429688 C32.24229144 4.5935918 30.30478698 4.53624408 28.3671875 4.48242188 C23.05361001 4.28953173 18.15456975 3.73811468 12.99169922 2.46557617 C10.32045604 1.84115098 7.66974975 1.58251264 4.9375 1.375 C3.99777344 1.30023438 3.05804688 1.22546875 2.08984375 1.1484375 C1.40019531 1.09945312 0.71054687 1.05046875 0 1 C0 0.67 0 0.34 0 0 Z " fill="#1DA2A7" transform="translate(391,146)"/>
<path d="M0 0 C0.556875 0.226875 1.11375 0.45375 1.6875 0.6875 C-0.3125 2.6875 -0.3125 2.6875 -2.375 3.1875 C-3.3340625 3.435 -3.3340625 3.435 -4.3125 3.6875 C-4.6425 4.3475 -4.9725 5.0075 -5.3125 5.6875 C-6.055 5.97625 -6.7975 6.265 -7.5625 6.5625 C-10.42383242 7.5613041 -10.42383242 7.5613041 -12.6875 9.75 C-15.89880046 12.12024558 -18.40510592 12.23664684 -22.3125 12.6875 C-22.6425 13.3475 -22.9725 14.0075 -23.3125 14.6875 C-26.34196274 16.98254753 -28.78470993 17.87171592 -32.5 18.25 C-36.32857489 18.28898679 -36.32857489 18.28898679 -38.3125 20.6875 C-40.30071313 21.08514263 -42.30194339 21.42525349 -44.3125 21.6875 C-44.6425 21.0275 -44.9725 20.3675 -45.3125 19.6875 C-43.6109375 19.2234375 -43.6109375 19.2234375 -41.875 18.75 C-38.52474901 18.05825469 -38.52474901 18.05825469 -37.3125 16.6875 C-35.765625 16.56375 -35.765625 16.56375 -34.1875 16.4375 C-30.00230616 15.62746248 -28.2434433 14.41303549 -24.984375 11.875 C-22.62822689 10.20147424 -20.04866302 9.59955434 -17.3125 8.6875 C-12.98826565 6.28824739 -8.80861816 3.64835008 -4.6484375 0.9765625 C-2.3125 -0.3125 -2.3125 -0.3125 0 0 Z " fill="#080D11" transform="translate(470.3125,543.3125)"/>
<path d="M0 0 C0.66 0 1.32 0 2 0 C0.6340819 5.58784676 0.6340819 5.58784676 -2.5 7.625 C-3.325 8.07875 -4.15 8.5325 -5 9 C-6.09166275 10.93330603 -6.09166275 10.93330603 -7 13 C-7.66 13.639375 -8.32 14.27875 -9 14.9375 C-11.26821533 17.27659706 -11.91184303 18.93955851 -13 22 C-13.69860901 23.6084254 -14.40768262 25.21233045 -15.125 26.8125 C-15.47820312 27.60269531 -15.83140625 28.39289063 -16.1953125 29.20703125 C-16.46085938 29.79871094 -16.72640625 30.39039063 -17 31 C-17.33 31 -17.66 31 -18 31 C-18.32845879 26.11691268 -17.43839108 23.13355368 -15.1875 18.8125 C-14.66542969 17.78769531 -14.14335937 16.76289063 -13.60546875 15.70703125 C-12.22208229 13.37445991 -11.10812695 11.68072587 -9 10 C-8.34 10 -7.68 10 -7 10 C-6.67 8.68 -6.34 7.36 -6 6 C-5.34 6 -4.68 6 -4 6 C-3.67 5.01 -3.34 4.02 -3 3 C-2.34 3 -1.68 3 -1 3 C-0.67 2.01 -0.34 1.02 0 0 Z " fill="#126467" transform="translate(259,179)"/>
<path d="M0 0 C0.33 0 0.66 0 1 0 C1.03963867 0.83136475 1.07927734 1.66272949 1.12011719 2.51928711 C1.277646 5.64571191 1.45105357 8.77076471 1.63476562 11.89575195 C1.74769481 13.8966561 1.84278462 15.89854163 1.9375 17.90039062 C2.34793562 24.68967989 2.94657739 30.31235989 6.16894531 36.36547852 C7 38 7 38 7 40 C6.34 40 5.68 40 5 40 C1.05444025 33.63619395 0.45221622 28.32685423 0.17578125 20.87890625 C0.32554937 18.10465009 0.32554937 18.10465009 -1 17 C-1.09981214 14.3226862 -1.13879875 11.67695825 -1.125 9 C-1.12886719 8.24976563 -1.13273438 7.49953125 -1.13671875 6.7265625 C-1.12661053 1.12661053 -1.12661053 1.12661053 0 0 Z " fill="#093132" transform="translate(236,223)"/>
<path d="M0 0 C9.9 0 19.8 0 30 0 C30 0.33 30 0.66 30 1 C28.92878906 1.06058594 27.85757812 1.12117188 26.75390625 1.18359375 C25.35675609 1.26798537 23.95962143 1.35263406 22.5625 1.4375 C21.50192383 1.49647461 21.50192383 1.49647461 20.41992188 1.55664062 C16.91309581 1.47624438 16.91309581 1.47624438 14 3 C11.46950598 3.07313567 8.96695163 3.09247527 6.4375 3.0625 C5.72658203 3.05798828 5.01566406 3.05347656 4.28320312 3.04882812 C2.52209987 3.03700864 0.76103964 3.01907263 -1 3 C-0.67 2.01 -0.34 1.02 0 0 Z " fill="#144B50" transform="translate(357,402)"/>
<path d="M0 0 C0.66 0.33 1.32 0.66 2 1 C-3.61 6.61 -9.22 12.22 -15 18 C-15.33 17.01 -15.66 16.02 -16 15 C-15.21625 14.278125 -14.4325 13.55625 -13.625 12.8125 C-10.88636065 10.24605955 -10.88636065 10.24605955 -10 7.25 C-9.505 6.13625 -9.505 6.13625 -9 5 C-6.375 4.1875 -6.375 4.1875 -4 4 C-4 3.34 -4 2.68 -4 2 C-2.125 0.9375 -2.125 0.9375 0 0 Z " fill="#25CBD1" transform="translate(270,174)"/>
<path d="M0 0 C4.29 0.33 8.58 0.66 13 1 C13 1.66 13 2.32 13 3 C14.32 3 15.64 3 17 3 C17 2.01 17 1.02 17 0 C18.98 0.66 20.96 1.32 23 2 C22.67 3.32 22.34 4.64 22 6 C17.57441614 6.17021476 14.88556741 5.99449277 11 4 C8.68502499 3.43113242 6.36663037 2.99844286 4.0234375 2.5625 C2 2 2 2 0 0 Z " fill="#24CBD1" transform="translate(455,157)"/>
<path d="M0 0 C-0.33 0.66 -0.66 1.32 -1 2 C-8.41271869 3.45869093 -15.9758009 3.11220253 -23.5 3.0625 C-24.799375 3.05798828 -26.09875 3.05347656 -27.4375 3.04882812 C-30.62504825 3.0371092 -33.81249955 3.02070219 -37 3 C-37 2.67 -37 2.34 -37 2 C-32.70880631 1.66038964 -28.41698339 1.3294676 -24.125 1 C-22.92101562 0.90460938 -21.71703125 0.80921875 -20.4765625 0.7109375 C-13.63428483 0.19032942 -6.86221524 -0.14267384 0 0 Z " fill="#092E30" transform="translate(422,293)"/>
<path d="M0 0 C3.90373711 3.25311426 4.78537025 6.14148101 6 11 C6.37125 11.7425 6.7425 12.485 7.125 13.25 C8 15 8 15 8 18 C8.66 18 9.32 18 10 18 C10.66 19.65 11.32 21.3 12 23 C6.81259243 20.87787872 4.64772737 16.74254697 2 12 C0.48341818 7.86386778 -0.2665691 4.39839007 0 0 Z " fill="#1E9CA2" transform="translate(242,252)"/>
<path d="M0 0 C1.32 0.33 2.64 0.66 4 1 C2.32493894 2.93954439 1.12950299 3.94996979 -1.28515625 4.8828125 C-4.26007744 6.10702467 -6.62533661 7.64544742 -9.25 9.5 C-10.12140625 10.1084375 -10.9928125 10.716875 -11.890625 11.34375 C-14.0932213 12.83035745 -14.0932213 12.83035745 -15 15 C-15.66 15 -16.32 15 -17 15 C-17 15.66 -17 16.32 -17 17 C-18.32 17.33 -19.64 17.66 -21 18 C-21 17.34 -21 16.68 -21 16 C-19.36395804 14.62926214 -17.69321939 13.29944744 -16 12 C-15.46375 11.4225 -14.9275 10.845 -14.375 10.25 C-13 9 -13 9 -10 9 C-9.67 8.01 -9.34 7.02 -9 6 C-8.34 6 -7.68 6 -7 6 C-6.67 5.01 -6.34 4.02 -6 3 C-4.02 3 -2.04 3 0 3 C0 2.01 0 1.02 0 0 Z " fill="#157578" transform="translate(283,161)"/>
<path d="M0 0 C6.89273477 2.51083858 11.70598996 4.57019251 15.1953125 11.23046875 C15.46085938 11.81441406 15.72640625 12.39835937 16 13 C16.33 13.66 16.66 14.32 17 15 C15.68 15 14.36 15 13 15 C13 14.01 13 13.02 13 12 C12.01 12 11.02 12 10 12 C9.67 10.02 9.34 8.04 9 6 C7.02 6 5.04 6 3 6 C3 5.01 3 4.02 3 3 C2.01 3 1.02 3 0 3 C0 2.01 0 1.02 0 0 Z " fill="#12555A" transform="translate(559,323)"/>
<path d="M0 0 C0.99 0 1.98 0 3 0 C3 0.66 3 1.32 3 2 C5.97 2.495 5.97 2.495 9 3 C9 3.66 9 4.32 9 5 C11.97 5.495 11.97 5.495 15 6 C14.67 6.66 14.34 7.32 14 8 C13.01 7.67 12.02 7.34 11 7 C8.13569136 6.69760965 5.27080066 6.49234231 2.3984375 6.28125 C0 6 0 6 -1 5 C-3.32817964 4.63239269 -5.6618385 4.29758419 -8 4 C-8 3.67 -8 3.34 -8 3 C-5.36 2.67 -2.72 2.34 0 2 C0 1.34 0 0.68 0 0 Z " fill="#093537" transform="translate(451,149)"/>
<path d="M0 0 C0.66 0 1.32 0 2 0 C2 0.66 2 1.32 2 2 C2.99 2.33 3.98 2.66 5 3 C5 3.66 5 4.32 5 5 C5.598125 5.061875 6.19625 5.12375 6.8125 5.1875 C9.98632509 6.36634932 10.55586505 7.98044509 12 11 C12.72166191 13.31691454 13.40059529 15.64848923 14 18 C13.01 17.67 12.02 17.34 11 17 C11 16.01 11 15.02 11 14 C10.34 14 9.68 14 9 14 C8.67 12.35 8.34 10.7 8 9 C7.01 8.67 6.02 8.34 5 8 C5 7.34 5 6.68 5 6 C4.34 6 3.68 6 3 6 C3 5.01 3 4.02 3 3 C2.01 3 1.02 3 0 3 C0 2.01 0 1.02 0 0 Z " fill="#10474B" transform="translate(581,344)"/>
<path d="M0 0 C0.33 0 0.66 0 1 0 C0.99476318 0.77714355 0.98952637 1.55428711 0.98413086 2.35498047 C0.96339844 5.86164549 0.95035179 9.36829763 0.9375 12.875 C0.92912109 14.09832031 0.92074219 15.32164062 0.91210938 16.58203125 C0.90888672 17.74863281 0.90566406 18.91523438 0.90234375 20.1171875 C0.89710693 21.19597168 0.89187012 22.27475586 0.88647461 23.38623047 C0.82116894 25.98232186 0.82116894 25.98232186 2 28 C2.06996014 29.70702735 2.08440154 31.41668003 2.0625 33.125 C2.05347656 34.03507812 2.04445312 34.94515625 2.03515625 35.8828125 C2.02355469 36.58148438 2.01195312 37.28015625 2 38 C1.67 38 1.34 38 1 38 C1 36.02 1 34.04 1 32 C0.34 32 -0.32 32 -1 32 C-1.02901401 27.41667994 -1.04680348 22.83338349 -1.0625 18.25 C-1.07087891 16.94804687 -1.07925781 15.64609375 -1.08789062 14.3046875 C-1.09111328 13.05429688 -1.09433594 11.80390625 -1.09765625 10.515625 C-1.10289307 9.36352539 -1.10812988 8.21142578 -1.11352539 7.02441406 C-1.01804485 4.48073036 -0.74917261 2.41601687 0 0 Z " fill="#21B2B8" transform="translate(240,214)"/>
<path d="M0 0 C3.43737217 2.29158145 3.61385461 3.26556124 5 7 C5.94701957 8.66453857 6.92736553 10.31048953 7.9375 11.9375 C10.15160877 15.55911068 12.18363124 19.16544372 14 23 C10.13902694 21.71300898 10.03224165 20.46233762 8 17 C6.96987155 15.86442533 5.9272869 14.74007252 4.875 13.625 C1.86943328 10.22611221 1.26381961 7.5728733 1 3 C0.67 2.01 0.34 1.02 0 0 Z " fill="#0F4C4F" transform="translate(241,258)"/>
<path d="M0 0 C4.75 1.875 4.75 1.875 7 3 C7 3.66 7 4.32 7 5 C8.32 5.33 9.64 5.66 11 6 C11 6.66 11 7.32 11 8 C11.99 8 12.98 8 14 8 C14 8.99 14 9.98 14 11 C15.65 11.33 17.3 11.66 19 12 C19 12.99 19 13.98 19 15 C18.01 15 17.02 15 16 15 C16 14.34 16 13.68 16 13 C15.38125 12.938125 14.7625 12.87625 14.125 12.8125 C13.42375 12.544375 12.7225 12.27625 12 12 C11.33333333 10.33333333 10.66666667 8.66666667 10 7 C8.15274948 6.30840599 8.15274948 6.30840599 6 6 C1.17757009 3.53271028 1.17757009 3.53271028 0 0 Z " fill="#091115" transform="translate(243,518)"/>
<path d="M0 0 C7.26 0 14.52 0 22 0 C22 0.33 22 0.66 22 1 C21.04287109 1.09087891 21.04287109 1.09087891 20.06640625 1.18359375 C19.24011719 1.26738281 18.41382813 1.35117187 17.5625 1.4375 C16.32693359 1.55931641 16.32693359 1.55931641 15.06640625 1.68359375 C13.01337975 1.78930815 13.01337975 1.78930815 12 3 C9.81360547 3.07258946 7.62499611 3.08373783 5.4375 3.0625 C3.64119141 3.04896484 3.64119141 3.04896484 1.80859375 3.03515625 C0.88175781 3.02355469 -0.04507812 3.01195312 -1 3 C-0.67 2.01 -0.34 1.02 0 0 Z " fill="#144A4F" transform="translate(333,405)"/>
<path d="M0 0 C-2.76050338 2.76050338 -5.20055984 2.46674524 -9 3 C-9.99 3.66 -10.98 4.32 -12 5 C-13.44372958 5.54072269 -14.90413666 6.03815895 -16.375 6.5 C-19.64143983 7.54973678 -22.83346782 8.67209941 -26 10 C-24.63016497 6.83884224 -24.0109362 6.0072908 -21 4 C-18.984375 3.4375 -18.984375 3.4375 -16.75 3 C-13.84139738 2.40505856 -11.10404836 1.73121451 -8.25 0.875 C-5.3072535 0.0827221 -3.02050241 -0.18306075 0 0 Z " fill="#25D1D8" transform="translate(321,152)"/>
<path d="M0 0 C4.529947 2.89413281 6.02053914 5.81142461 7.94921875 10.61328125 C9.34251576 13.7779819 11.18735974 16.53003833 13.14453125 19.37109375 C13.42683594 19.90863281 13.70914063 20.44617188 14 21 C13.67 21.66 13.34 22.32 13 23 C7.80814153 18.16620073 5.46791586 12.92641523 2.96484375 6.40234375 C2.08005005 4.1993149 1.094056 2.10544999 0 0 Z " fill="#103237" transform="translate(187,439)"/>
<path d="M0 0 C2.97 0 5.94 0 9 0 C9.33 0.66 9.66 1.32 10 2 C11.2375 2.2475 11.2375 2.2475 12.5 2.5 C13.7375 2.7475 13.7375 2.7475 15 3 C15.33 3.66 15.66 4.32 16 5 C18.32156597 5.40729228 20.6568787 5.74438677 23 6 C23 6.99 23 7.98 23 9 C22.67 8.67 22.34 8.34 22 8 C20.60652455 7.86798654 19.20981548 7.76941967 17.8125 7.6875 C13.23419764 7.23907228 10.75418396 5.69321893 7 3 C4.68147352 2.14704615 2.40867686 1.57808245 0 1 C0 0.67 0 0.34 0 0 Z " fill="#1D8A90" transform="translate(516,300)"/>
<path d="M0 0 C3.63 0 7.26 0 11 0 C10.01 1.485 10.01 1.485 9 3 C6.56982422 3.34057617 6.56982422 3.34057617 3.5546875 3.29296875 C2.47832031 3.28330078 1.40195312 3.27363281 0.29296875 3.26367188 C-0.83496094 3.23853516 -1.96289062 3.21339844 -3.125 3.1875 C-4.26066406 3.17396484 -5.39632813 3.16042969 -6.56640625 3.14648438 C-9.37807387 3.11104319 -12.18880417 3.06163517 -15 3 C-15 2.67 -15 2.34 -15 2 C-10.05 2 -5.1 2 0 2 C0 1.34 0 0.68 0 0 Z " fill="#0E4346" transform="translate(361,296)"/>
<path d="M0 0 C7.92 0 15.84 0 24 0 C24 0.33 24 0.66 24 1 C12.12 1.99 12.12 1.99 0 3 C0 2.01 0 1.02 0 0 Z " fill="#146367" transform="translate(398,292)"/>
<path d="M0 0 C1.32 0.33 2.64 0.66 4 1 C-2.41940853 6.64907951 -12.79280929 7.41151148 -21 9 C-21 8.34 -21 7.68 -21 7 C-20.31292969 6.87882813 -19.62585938 6.75765625 -18.91796875 6.6328125 C-18.01691406 6.46523437 -17.11585938 6.29765625 -16.1875 6.125 C-14.84751953 5.88136719 -14.84751953 5.88136719 -13.48046875 5.6328125 C-10.77272154 5.08811551 -10.77272154 5.08811551 -8 3 C-5.66800612 2.92094936 -3.33167378 2.91201231 -1 3 C-0.67 2.01 -0.34 1.02 0 0 Z " fill="#1A9297" transform="translate(316,149)"/>
<path d="M0 0 C2.375 0.25 2.375 0.25 5 1 C5.66666667 2.33333333 6.33333333 3.66666667 7 5 C9.55519921 5.81171228 9.55519921 5.81171228 12 6 C12 6.66 12 7.32 12 8 C12.928125 8.2165625 12.928125 8.2165625 13.875 8.4375 C16 9 16 9 18 10 C18 10.66 18 11.32 18 12 C18.99 12.33 19.98 12.66 21 13 C18.03 12.505 18.03 12.505 15 12 C15 11.34 15 10.68 15 10 C13.68 9.67 12.36 9.34 11 9 C11 8.34 11 7.68 11 7 C9.35 6.67 7.7 6.34 6 6 C6 5.34 6 4.68 6 4 C5.38125 3.71125 4.7625 3.4225 4.125 3.125 C2 2 2 2 0 0 Z " fill="#091014" transform="translate(262,533)"/>
<path d="M0 0 C0.33 0 0.66 0 1 0 C1.99 3.96 2.98 7.92 4 12 C5.65 12 7.3 12 9 12 C8.67 12.99 8.34 13.98 8 15 C6.35 15 4.7 15 3 15 C3 14.01 3 13.02 3 12 C2.01 11.67 1.02 11.34 0 11 C0 7.37 0 3.74 0 0 Z " fill="#13494E" transform="translate(610,389)"/>
<path d="M0 0 C0.99 0.33 1.98 0.66 3 1 C5.06362991 1.15029988 7.13123915 1.24844448 9.19921875 1.31640625 C11.01196289 1.37924805 11.01196289 1.37924805 12.86132812 1.44335938 C14.12396484 1.48267578 15.38660156 1.52199219 16.6875 1.5625 C18.59885742 1.62727539 18.59885742 1.62727539 20.54882812 1.69335938 C23.69910852 1.7995486 26.84946839 1.90159533 30 2 C30 1.34 30 0.68 30 0 C30.66 0 31.32 0 32 0 C31.67 0.99 31.34 1.98 31 3 C21.1 3 11.2 3 1 3 C0.67 2.01 0.34 1.02 0 0 Z " fill="#061E1F" transform="translate(301,299)"/>
<path d="M0 0 C0.99 0.33 1.98 0.66 3 1 C4.03865096 3.36695387 4.89577096 5.61555495 5.6875 8.0625 C5.91244141 8.72572266 6.13738281 9.38894531 6.36914062 10.07226562 C6.92334719 11.71130207 7.46306085 13.35522593 8 15 C7.01 15 6.02 15 5 15 C5 14.01 5 13.02 5 12 C4.01 11.67 3.02 11.34 2 11 C2 8.36 2 5.72 2 3 C1.34 3 0.68 3 0 3 C0 2.01 0 1.02 0 0 Z " fill="#145055" transform="translate(602,374)"/>
<path d="M0 0 C4.95 0 9.9 0 15 0 C15 0.66 15 1.32 15 2 C16.32 2.33 17.64 2.66 19 3 C6.09233792 3.20488353 6.09233792 3.20488353 1 2 C0.67 1.34 0.34 0.68 0 0 Z " fill="#072527" transform="translate(466,293)"/>
<path d="M0 0 C5.61 0.33 11.22 0.66 17 1 C17 1.66 17 2.32 17 3 C10.90218999 3.22084624 5.78357065 3.01167675 0 1 C0 0.67 0 0.34 0 0 Z " fill="#146266" transform="translate(284,296)"/>
<path d="M0 0 C1.32 0 2.64 0 4 0 C4 0.66 4 1.32 4 2 C5.134375 2.12375 6.26875 2.2475 7.4375 2.375 C8.613125 2.58125 9.78875 2.7875 11 3 C11.33 3.66 11.66 4.32 12 5 C12.99 5.66 13.98 6.32 15 7 C9.22621075 6.5188509 5.04140164 4.81532819 0 2 C0 1.34 0 0.68 0 0 Z " fill="#15686D" transform="translate(269,289)"/>
<path d="M0 0 C0.74507813 0.00451172 1.49015625 0.00902344 2.2578125 0.01367188 C4.0885764 0.02540754 5.91929873 0.0433415 7.75 0.0625 C7.75 0.3925 7.75 0.7225 7.75 1.0625 C6.96753906 1.12308594 6.18507813 1.18367188 5.37890625 1.24609375 C4.36699219 1.32988281 3.35507812 1.41367187 2.3125 1.5 C1.30316406 1.58121094 0.29382813 1.66242188 -0.74609375 1.74609375 C-3.18640779 1.79461468 -3.18640779 1.79461468 -4.25 3.0625 C-6.92058851 3.20365161 -9.57432238 3.10497107 -12.25 3.0625 C-12.25 2.4025 -12.25 1.7425 -12.25 1.0625 C-8.15996141 -0.08732602 -4.21822949 -0.04844256 0 0 Z " fill="#145055" transform="translate(413.25,398.9375)"/>
<path d="M0 0 C0.99 0 1.98 0 3 0 C3.66 4.29 4.32 8.58 5 13 C1.59243919 10.72829279 1.1304589 9.82616857 0 6 C-0.125 2.6875 -0.125 2.6875 0 0 Z " fill="#167175" transform="translate(238,246)"/>
<path d="M0 0 C4.95 0 9.9 0 15 0 C15.33 0.99 15.66 1.98 16 3 C10.36718401 3.2396943 5.45461169 2.38529821 0 1 C0 0.67 0 0.34 0 0 Z " fill="#1D9096" transform="translate(476,291)"/>
<path d="M0 0 C1 2 1 2 0.3125 4.625 C-1.66472256 9.70928659 -3.97260697 14.45891045 -7 19 C-6.49884433 13.98844327 -5.43241362 10.3970554 -3 6 C-2.1646875 4.329375 -2.1646875 4.329375 -1.3125 2.625 C-0.6628125 1.325625 -0.6628125 1.325625 0 0 Z " fill="#20B0B5" transform="translate(248,195)"/>
<path d="M0 0 C3 1 3 1 4 3 C4.99 3.33 5.98 3.66 7 4 C8.38576923 5.62332967 9.72641268 7.28724465 11 9 C7.35521088 9 5.90696599 8.14197494 3 6 C2.1875 3.8125 2.1875 3.8125 2 2 C1.34 2 0.68 2 0 2 C0 1.34 0 0.68 0 0 Z " fill="#1F989E" transform="translate(254,275)"/>
<path d="M0 0 C6.53369066 -0.36983155 6.53369066 -0.36983155 8.8125 1.4375 C9.204375 1.953125 9.59625 2.46875 10 3 C10.66 3.33 11.32 3.66 12 4 C12 4.66 12 5.32 12 6 C12.99 6.33 13.98 6.66 15 7 C14.01 7.495 14.01 7.495 13 8 C10.875 7.0625 10.875 7.0625 9 6 C9 5.34 9 4.68 9 4 C8.443125 3.87625 7.88625 3.7525 7.3125 3.625 C4.77885636 2.94023145 2.42078968 2.00866237 0 1 C0 0.67 0 0.34 0 0 Z " fill="#17868A" transform="translate(418,130)"/>
<path d="M0 0 C0.99 0.33 1.98 0.66 3 1 C0.58112915 3.41887085 -0.74092349 3.49376963 -4.0625 4.0625 C-7.33083952 4.41027566 -7.33083952 4.41027566 -10 6 C-12.33297433 6.04092937 -14.66705225 6.04241723 -17 6 C-17 5.67 -17 5.34 -17 5 C-15.865625 4.690625 -14.73125 4.38125 -13.5625 4.0625 C-10.21224901 3.37075469 -10.21224901 3.37075469 -9 2 C-6.9427083 1.68076508 -4.88386479 1.48838648 -2.8125 1.28125 C-0.9832467 1.18001957 -0.9832467 1.18001957 0 0 Z " fill="#080B0F" transform="translate(422,564)"/>
<path d="M0 0 C5.72398793 0.74660712 11.34853777 1.82877141 17 3 C17.33 3.99 17.66 4.98 18 6 C11.82777121 4.75971762 5.93317878 3.10396411 0 1 C0 0.67 0 0.34 0 0 Z " fill="#1F949A" transform="translate(498,294)"/>
<path d="M0 0 C0.625 1.8125 0.625 1.8125 1 4 C0.01 5.485 0.01 5.485 -1 7 C-1.45394552 9.27912938 -1.45394552 9.27912938 -1.625 11.6875 C-1.69976562 12.49574219 -1.77453125 13.30398437 -1.8515625 14.13671875 C-1.90054688 14.75160156 -1.94953125 15.36648437 -2 16 C-2.33 16 -2.66 16 -3 16 C-3.02703381 14.06257659 -3.04641125 12.12504521 -3.0625 10.1875 C-3.07410156 9.10855469 -3.08570313 8.02960938 -3.09765625 6.91796875 C-3 4 -3 4 -2 1 C-1.34 0.67 -0.68 0.34 0 0 Z " fill="#0A3A3B" transform="translate(240,206)"/>
<path d="M0 0 C1.44277632 2.84655869 2.81175104 5.71639675 4.125 8.625 C4.47820312 9.40101563 4.83140625 10.17703125 5.1953125 10.9765625 C6 13 6 13 6 15 C5.34 15 4.68 15 4 15 C0.95842058 9.77228537 -0.50610724 6.07328688 0 0 Z " fill="#062021" transform="translate(237,248)"/>
<path d="M0 0 C2.58155616 3.87233424 3.12134154 5.53536019 3.0625 10.125 C3.05347656 11.03507813 3.04445312 11.94515625 3.03515625 12.8828125 C3.02355469 13.58148438 3.01195312 14.28015625 3 15 C2.67 15 2.34 15 2 15 C2 13.02 2 11.04 2 9 C1.34 9 0.68 9 0 9 C0 6.03 0 3.06 0 0 Z " fill="#20AAB0" transform="translate(239,237)"/>
<path d="M0 0 C0.66 0 1.32 0 2 0 C0.52307692 5.66153846 0.52307692 5.66153846 -2.125 7.375 C-3.053125 7.684375 -3.053125 7.684375 -4 8 C-3.67 6.35 -3.34 4.7 -3 3 C-2.34 3 -1.68 3 -1 3 C-0.67 2.01 -0.34 1.02 0 0 Z " fill="#178185" transform="translate(259,179)"/>
<path d="M0 0 C9.41002278 0.96355353 9.41002278 0.96355353 14 2 C14 2.33 14 2.66 14 3 C12.41705218 3.05437607 10.83355744 3.09296271 9.25 3.125 C8.36828125 3.14820313 7.4865625 3.17140625 6.578125 3.1953125 C3.8864142 2.99139502 2.30095026 2.36551721 0 1 C0 0.67 0 0.34 0 0 Z " fill="#0F4B4F" transform="translate(494,296)"/>
<path d="M0 0 C3.3 0.33 6.6 0.66 10 1 C10 1.99 10 2.98 10 4 C10.99 4.33 11.98 4.66 13 5 C10.69 4.67 8.38 4.34 6 4 C6 3.34 6 2.68 6 2 C3.03 1.505 3.03 1.505 0 1 C0 0.67 0 0.34 0 0 Z " fill="#1DA5AA" transform="translate(462,156)"/>
<path d="M0 0 C0.66 0 1.32 0 2 0 C3.35386936 1.65002828 4.68678142 3.3174387 6 5 C6.66 5.33 7.32 5.66 8 6 C7.67 6.99 7.34 7.98 7 9 C1.21538462 4.56923077 1.21538462 4.56923077 0.125 1.6875 C0.08375 1.130625 0.0425 0.57375 0 0 Z " fill="#1A767D" transform="translate(571,330)"/>
<path d="M0 0 C1.98 0.99 1.98 0.99 4 2 C4 2.66 4 3.32 4 4 C4.66 4 5.32 4 6 4 C6.99 5.98 7.98 7.96 9 10 C5.52867905 8.59070303 4.11906726 7.09394917 2.25 3.875 C1.60804688 2.78832031 1.60804688 2.78832031 0.953125 1.6796875 C0.63859375 1.12539063 0.3240625 0.57109375 0 0 Z " fill="#177277" transform="translate(250,273)"/>
<path d="M0 0 C1.98 0.66 3.96 1.32 6 2 C5.67 3.32 5.34 4.64 5 6 C2.69 6 0.38 6 -2 6 C-2 5.67 -2 5.34 -2 5 C-0.02 4.67 1.96 4.34 4 4 C2.68 3.67 1.36 3.34 0 3 C0 2.01 0 1.02 0 0 Z " fill="#26D3DA" transform="translate(472,157)"/>
<path d="M0 0 C4.46839215 -0.21278058 7.82262526 0.40861915 12 2 C12 2.33 12 2.66 12 3 C10.56344146 3.08131463 9.1255517 3.13933559 7.6875 3.1875 C6.48673828 3.23970703 6.48673828 3.23970703 5.26171875 3.29296875 C2.52148416 2.93801608 1.70828921 2.10633718 0 0 Z " fill="#27D7DE" transform="translate(425,151)"/>
<path d="M0 0 C0 3.23655184 -0.6550847 4.78752639 -2 7.6875 C-2.37125 8.49574219 -2.7425 9.30398437 -3.125 10.13671875 C-3.41375 10.75160156 -3.7025 11.36648437 -4 12 C-4.33 12 -4.66 12 -5 12 C-5.35338623 9.03155565 -5.5417682 6.84401782 -3.88671875 4.265625 C-2.64496832 2.79651181 -1.32662082 1.39295186 0 0 Z " fill="#16797D" transform="translate(246,198)"/>
<path d="M0 0 C-5.625 4 -5.625 4 -9 4 C-8.25 2.0625 -8.25 2.0625 -7 0 C-4.04680182 -1.23843794 -3.12561472 -1.04187157 0 0 Z " fill="#25CBD1" transform="translate(283,168)"/>
<path d="M0 0 C4.455 1.98 4.455 1.98 9 4 C9 4.66 9 5.32 9 6 C7.68 6 6.36 6 5 6 C5 5.34 5 4.68 5 4 C2.525 3.01 2.525 3.01 0 2 C0 1.34 0 0.68 0 0 Z " fill="#25CDD4" transform="translate(440,139)"/>
<path d="M0 0 C1.32 0.33 2.64 0.66 4 1 C3.01 2.485 3.01 2.485 2 4 C0.0546875 4.29296875 0.0546875 4.29296875 -2.125 4.1875 C-3.40375 4.125625 -4.6825 4.06375 -6 4 C-6 3.67 -6 3.34 -6 3 C-4.35 3 -2.7 3 -1 3 C-0.67 2.01 -0.34 1.02 0 0 Z " fill="#1EAAAF" transform="translate(293,158)"/>
<path d="M0 0 C3.75376152 1.25125384 4.24073289 2.5652404 6 6 C6 6.66 6 7.32 6 8 C4 8 4 8 2.4375 6.8125 C0.67318459 4.5879284 0.37596209 2.78211944 0 0 Z " fill="#081315" transform="translate(222,495)"/>
<path d="M0 0 C3.36720387 1.39332574 4.9859524 2.9789286 7 6 C5.68 6 4.36 6 3 6 C3 5.01 3 4.02 3 3 C2.01 3 1.02 3 0 3 C0 2.01 0 1.02 0 0 Z " fill="#0C383B" transform="translate(569,332)"/>
<path d="M0 0 C3 2 3 2 3.73046875 4.3828125 C3.88128906 5.28773438 4.03210938 6.19265625 4.1875 7.125 C4.34605469 8.03507812 4.50460938 8.94515625 4.66796875 9.8828125 C4.83232422 10.93082031 4.83232422 10.93082031 5 12 C4.01 11.34 3.02 10.68 2 10 C1.375 6.5625 1.375 6.5625 1 3 C0.67 2.01 0.34 1.02 0 0 Z " fill="#0B393B" transform="translate(241,258)"/>
<path d="M0 0 C1.2065625 0.0309375 1.2065625 0.0309375 2.4375 0.0625 C1.4475 0.5575 1.4475 0.5575 0.4375 1.0625 C0.1075 2.0525 -0.2225 3.0425 -0.5625 4.0625 C-1.2225 4.0625 -1.8825 4.0625 -2.5625 4.0625 C-2.8925 4.7225 -3.2225 5.3825 -3.5625 6.0625 C-3.605221 4.39638095 -3.60313832 2.72867115 -3.5625 1.0625 C-2.5625 0.0625 -2.5625 0.0625 0 0 Z " fill="#07282A" transform="translate(264.5625,172.9375)"/>
</svg>
